%TF.GenerationSoftware,KiCad,Pcbnew,8.0.3*%
%TF.CreationDate,2024-07-03T14:55:16+02:00*%
%TF.ProjectId,Game Console PCB,47616d65-2043-46f6-9e73-6f6c65205043,rev?*%
%TF.SameCoordinates,Original*%
%TF.FileFunction,Copper,L1,Top*%
%TF.FilePolarity,Positive*%
%FSLAX46Y46*%
G04 Gerber Fmt 4.6, Leading zero omitted, Abs format (unit mm)*
G04 Created by KiCad (PCBNEW 8.0.3) date 2024-07-03 14:55:16*
%MOMM*%
%LPD*%
G01*
G04 APERTURE LIST*
G04 Aperture macros list*
%AMRoundRect*
0 Rectangle with rounded corners*
0 $1 Rounding radius*
0 $2 $3 $4 $5 $6 $7 $8 $9 X,Y pos of 4 corners*
0 Add a 4 corners polygon primitive as box body*
4,1,4,$2,$3,$4,$5,$6,$7,$8,$9,$2,$3,0*
0 Add four circle primitives for the rounded corners*
1,1,$1+$1,$2,$3*
1,1,$1+$1,$4,$5*
1,1,$1+$1,$6,$7*
1,1,$1+$1,$8,$9*
0 Add four rect primitives between the rounded corners*
20,1,$1+$1,$2,$3,$4,$5,0*
20,1,$1+$1,$4,$5,$6,$7,0*
20,1,$1+$1,$6,$7,$8,$9,0*
20,1,$1+$1,$8,$9,$2,$3,0*%
G04 Aperture macros list end*
%TA.AperFunction,SMDPad,CuDef*%
%ADD10RoundRect,0.381000X-0.762000X-0.381000X0.762000X-0.381000X0.762000X0.381000X-0.762000X0.381000X0*%
%TD*%
%TA.AperFunction,ComponentPad*%
%ADD11RoundRect,0.250000X0.600000X0.725000X-0.600000X0.725000X-0.600000X-0.725000X0.600000X-0.725000X0*%
%TD*%
%TA.AperFunction,ComponentPad*%
%ADD12O,1.700000X1.950000*%
%TD*%
%TA.AperFunction,ViaPad*%
%ADD13C,0.600000*%
%TD*%
%TA.AperFunction,Conductor*%
%ADD14C,0.500000*%
%TD*%
G04 APERTURE END LIST*
D10*
%TO.P,SW3,1,1*%
%TO.N,GND*%
X145000000Y-110000000D03*
%TO.P,SW3,2,2*%
%TO.N,Net-(C3-Pad2)*%
X145000000Y-113810000D03*
%TD*%
%TO.P,SW1,1,1*%
%TO.N,GND*%
X145000000Y-88000000D03*
%TO.P,SW1,2,2*%
%TO.N,Net-(C1-Pad2)*%
X145000000Y-91810000D03*
%TD*%
%TO.P,SW5,1,1*%
%TO.N,GND*%
X134000000Y-130500000D03*
%TO.P,SW5,2,2*%
%TO.N,Net-(C5-Pad2)*%
X134000000Y-134310000D03*
%TD*%
%TO.P,SW6,1,1*%
%TO.N,GND*%
X156000000Y-130500000D03*
%TO.P,SW6,2,2*%
%TO.N,Net-(C6-Pad2)*%
X156000000Y-134310000D03*
%TD*%
%TO.P,SW2,1,1*%
%TO.N,GND*%
X156000000Y-99190000D03*
%TO.P,SW2,2,2*%
%TO.N,Net-(C2-Pad2)*%
X156000000Y-103000000D03*
%TD*%
%TO.P,SW4,1,1*%
%TO.N,GND*%
X134000000Y-99000000D03*
%TO.P,SW4,2,2*%
%TO.N,Net-(C4-Pad2)*%
X134000000Y-102810000D03*
%TD*%
D11*
%TO.P,J1,1,Pin_1*%
%TO.N,SW1*%
X154000000Y-77500000D03*
D12*
%TO.P,J1,2,Pin_2*%
%TO.N,SW2*%
X151500000Y-77500000D03*
%TO.P,J1,3,Pin_3*%
%TO.N,SW3*%
X149000000Y-77500000D03*
%TO.P,J1,4,Pin_4*%
%TO.N,SW4*%
X146500000Y-77500000D03*
%TO.P,J1,5,Pin_5*%
%TO.N,SW5*%
X144000000Y-77500000D03*
%TO.P,J1,6,Pin_6*%
%TO.N,SW6*%
X141500000Y-77500000D03*
%TO.P,J1,7,Pin_7*%
%TO.N,unconnected-(J1-Pin_7-Pad7)*%
X139000000Y-77500000D03*
%TO.P,J1,8,Pin_8*%
%TO.N,GND*%
X136500000Y-77500000D03*
%TD*%
D13*
%TO.N,Net-(C6-Pad2)*%
X151500000Y-133000000D03*
%TO.N,Net-(C5-Pad2)*%
X143000000Y-105000000D03*
%TO.N,Net-(C4-Pad2)*%
X146000000Y-100000000D03*
%TO.N,Net-(C3-Pad2)*%
X149000000Y-93000000D03*
%TO.N,Net-(C2-Pad2)*%
X152000000Y-93000000D03*
%TO.N,Net-(C1-Pad2)*%
X154807304Y-87973723D03*
%TD*%
D14*
%TO.N,Net-(C1-Pad2)*%
X145000000Y-91810000D02*
X153690000Y-91810000D01*
X153690000Y-91810000D02*
X154807304Y-90692696D01*
X154807304Y-90692696D02*
X154807304Y-87973723D01*
%TO.N,Net-(C5-Pad2)*%
X142000000Y-106000000D02*
X143000000Y-105000000D01*
X142000000Y-106000000D02*
X142000000Y-131000000D01*
X142000000Y-131000000D02*
X138690000Y-134310000D01*
%TO.N,Net-(C6-Pad2)*%
X152810000Y-134310000D02*
X151500000Y-133000000D01*
X156000000Y-134310000D02*
X152810000Y-134310000D01*
%TO.N,Net-(C5-Pad2)*%
X134000000Y-134310000D02*
X138690000Y-134310000D01*
%TO.N,Net-(C4-Pad2)*%
X143190000Y-102810000D02*
X146000000Y-100000000D01*
X134000000Y-102810000D02*
X143190000Y-102810000D01*
%TO.N,Net-(C3-Pad2)*%
X149000000Y-112500000D02*
X149000000Y-93000000D01*
X145000000Y-113810000D02*
X147690000Y-113810000D01*
X147690000Y-113810000D02*
X149000000Y-112500000D01*
%TO.N,Net-(C2-Pad2)*%
X152000000Y-102000000D02*
X152000000Y-93000000D01*
X156000000Y-103000000D02*
X153000000Y-103000000D01*
X153000000Y-103000000D02*
X152000000Y-102000000D01*
%TD*%
%TA.AperFunction,Conductor*%
%TO.N,GND*%
G36*
X164442539Y-75520185D02*
G01*
X164488294Y-75572989D01*
X164499500Y-75624500D01*
X164499500Y-141375500D01*
X164479815Y-141442539D01*
X164427011Y-141488294D01*
X164375500Y-141499500D01*
X125624500Y-141499500D01*
X125557461Y-141479815D01*
X125511706Y-141427011D01*
X125500500Y-141375500D01*
X125500500Y-133852345D01*
X132356500Y-133852345D01*
X132356500Y-134767656D01*
X132356501Y-134767659D01*
X132359418Y-134810701D01*
X132359418Y-134810702D01*
X132379873Y-134892950D01*
X132400298Y-134975083D01*
X132405694Y-134996778D01*
X132490881Y-135168543D01*
X132490883Y-135168546D01*
X132611009Y-135317989D01*
X132611010Y-135317990D01*
X132760453Y-135438116D01*
X132760456Y-135438118D01*
X132926959Y-135520695D01*
X132932225Y-135523307D01*
X133082013Y-135560558D01*
X133118291Y-135569580D01*
X133118292Y-135569580D01*
X133118296Y-135569581D01*
X133161343Y-135572500D01*
X134838656Y-135572499D01*
X134881704Y-135569581D01*
X135067775Y-135523307D01*
X135239547Y-135438116D01*
X135388990Y-135317990D01*
X135509116Y-135168547D01*
X135528528Y-135129405D01*
X135575949Y-135078093D01*
X135639616Y-135060500D01*
X138763920Y-135060500D01*
X138861462Y-135041096D01*
X138908913Y-135031658D01*
X139045495Y-134975084D01*
X139094729Y-134942186D01*
X139094734Y-134942183D01*
X139119071Y-134925921D01*
X139168416Y-134892952D01*
X141061372Y-132999996D01*
X150694435Y-132999996D01*
X150694435Y-133000003D01*
X150714630Y-133179249D01*
X150714631Y-133179254D01*
X150774211Y-133349523D01*
X150870184Y-133502262D01*
X150997738Y-133629816D01*
X151150478Y-133725789D01*
X151150480Y-133725789D01*
X151150484Y-133725792D01*
X151156756Y-133728813D01*
X151155869Y-133730653D01*
X151191939Y-133753307D01*
X152331586Y-134892954D01*
X152361058Y-134912645D01*
X152405270Y-134942186D01*
X152454505Y-134975084D01*
X152454506Y-134975084D01*
X152454507Y-134975085D01*
X152454509Y-134975086D01*
X152591082Y-135031656D01*
X152591087Y-135031658D01*
X152591091Y-135031658D01*
X152591092Y-135031659D01*
X152736079Y-135060500D01*
X152736082Y-135060500D01*
X152736083Y-135060500D01*
X152883918Y-135060500D01*
X154360384Y-135060500D01*
X154427423Y-135080185D01*
X154471472Y-135129406D01*
X154490883Y-135168546D01*
X154611009Y-135317989D01*
X154611010Y-135317990D01*
X154760453Y-135438116D01*
X154760456Y-135438118D01*
X154926959Y-135520695D01*
X154932225Y-135523307D01*
X155082013Y-135560558D01*
X155118291Y-135569580D01*
X155118292Y-135569580D01*
X155118296Y-135569581D01*
X155161343Y-135572500D01*
X156838656Y-135572499D01*
X156881704Y-135569581D01*
X157067775Y-135523307D01*
X157239547Y-135438116D01*
X157388990Y-135317990D01*
X157509116Y-135168547D01*
X157594307Y-134996775D01*
X157640581Y-134810704D01*
X157643500Y-134767657D01*
X157643499Y-133852344D01*
X157640581Y-133809296D01*
X157594307Y-133623225D01*
X157591695Y-133617959D01*
X157509118Y-133451456D01*
X157509116Y-133451453D01*
X157388990Y-133302010D01*
X157388989Y-133302009D01*
X157239546Y-133181883D01*
X157239543Y-133181881D01*
X157067778Y-133096694D01*
X157067776Y-133096693D01*
X157067775Y-133096693D01*
X157029939Y-133087283D01*
X156881708Y-133050419D01*
X156857105Y-133048751D01*
X156838657Y-133047500D01*
X156838654Y-133047500D01*
X155161343Y-133047500D01*
X155161340Y-133047501D01*
X155118298Y-133050418D01*
X155118297Y-133050418D01*
X154932221Y-133096694D01*
X154760456Y-133181881D01*
X154760453Y-133181883D01*
X154611010Y-133302009D01*
X154611009Y-133302010D01*
X154490883Y-133451453D01*
X154471472Y-133490594D01*
X154424051Y-133541907D01*
X154360384Y-133559500D01*
X153172230Y-133559500D01*
X153105191Y-133539815D01*
X153084549Y-133523181D01*
X152253307Y-132691939D01*
X152230653Y-132655869D01*
X152228813Y-132656756D01*
X152225792Y-132650484D01*
X152225789Y-132650480D01*
X152225789Y-132650478D01*
X152129816Y-132497738D01*
X152002262Y-132370184D01*
X151849523Y-132274211D01*
X151679254Y-132214631D01*
X151679249Y-132214630D01*
X151500004Y-132194435D01*
X151499996Y-132194435D01*
X151320750Y-132214630D01*
X151320745Y-132214631D01*
X151150476Y-132274211D01*
X150997737Y-132370184D01*
X150870184Y-132497737D01*
X150774211Y-132650476D01*
X150714631Y-132820745D01*
X150714630Y-132820750D01*
X150694435Y-132999996D01*
X141061372Y-132999996D01*
X142582952Y-131478416D01*
X142632186Y-131404729D01*
X142665084Y-131355495D01*
X142721658Y-131218913D01*
X142750500Y-131073918D01*
X142750500Y-130957609D01*
X154357001Y-130957609D01*
X154359917Y-131000632D01*
X154359917Y-131000634D01*
X154406165Y-131186602D01*
X154491307Y-131358275D01*
X154611365Y-131507633D01*
X154611366Y-131507634D01*
X154760725Y-131627692D01*
X154760724Y-131627692D01*
X154932397Y-131712834D01*
X155118361Y-131759081D01*
X155118357Y-131759081D01*
X155161395Y-131761999D01*
X155749999Y-131761999D01*
X156250000Y-131761999D01*
X156838607Y-131761999D01*
X156838609Y-131761998D01*
X156881632Y-131759082D01*
X156881634Y-131759082D01*
X157067602Y-131712834D01*
X157239275Y-131627692D01*
X157388633Y-131507634D01*
X157388634Y-131507633D01*
X157508692Y-131358275D01*
X157593834Y-131186602D01*
X157640081Y-131000640D01*
X157643000Y-130957604D01*
X157643000Y-130750000D01*
X156250000Y-130750000D01*
X156250000Y-131761999D01*
X155749999Y-131761999D01*
X155750000Y-131761998D01*
X155750000Y-130750000D01*
X154357001Y-130750000D01*
X154357001Y-130957609D01*
X142750500Y-130957609D01*
X142750500Y-130042395D01*
X154357000Y-130042395D01*
X154357000Y-130250000D01*
X155750000Y-130250000D01*
X156250000Y-130250000D01*
X157642999Y-130250000D01*
X157642999Y-130042393D01*
X157642998Y-130042390D01*
X157640082Y-129999367D01*
X157640082Y-129999365D01*
X157593834Y-129813397D01*
X157508692Y-129641724D01*
X157388634Y-129492366D01*
X157388633Y-129492365D01*
X157239274Y-129372307D01*
X157239275Y-129372307D01*
X157067602Y-129287165D01*
X156881638Y-129240918D01*
X156881642Y-129240918D01*
X156838605Y-129238000D01*
X156250000Y-129238000D01*
X156250000Y-130250000D01*
X155750000Y-130250000D01*
X155750000Y-129238000D01*
X155161394Y-129238000D01*
X155161390Y-129238001D01*
X155118367Y-129240917D01*
X155118365Y-129240917D01*
X154932397Y-129287165D01*
X154760724Y-129372307D01*
X154611366Y-129492365D01*
X154611365Y-129492366D01*
X154491307Y-129641724D01*
X154406165Y-129813397D01*
X154359918Y-129999359D01*
X154357000Y-130042395D01*
X142750500Y-130042395D01*
X142750500Y-110457609D01*
X143357001Y-110457609D01*
X143359917Y-110500632D01*
X143359917Y-110500634D01*
X143406165Y-110686602D01*
X143491307Y-110858275D01*
X143611365Y-111007633D01*
X143611366Y-111007634D01*
X143760725Y-111127692D01*
X143760724Y-111127692D01*
X143932397Y-111212834D01*
X144118361Y-111259081D01*
X144118357Y-111259081D01*
X144161395Y-111261999D01*
X144749999Y-111261999D01*
X145250000Y-111261999D01*
X145838607Y-111261999D01*
X145838609Y-111261998D01*
X145881632Y-111259082D01*
X145881634Y-111259082D01*
X146067602Y-111212834D01*
X146239275Y-111127692D01*
X146388633Y-111007634D01*
X146388634Y-111007633D01*
X146508692Y-110858275D01*
X146593834Y-110686602D01*
X146640081Y-110500640D01*
X146643000Y-110457604D01*
X146643000Y-110250000D01*
X145250000Y-110250000D01*
X145250000Y-111261999D01*
X144749999Y-111261999D01*
X144750000Y-111261998D01*
X144750000Y-110250000D01*
X143357001Y-110250000D01*
X143357001Y-110457609D01*
X142750500Y-110457609D01*
X142750500Y-109542395D01*
X143357000Y-109542395D01*
X143357000Y-109750000D01*
X144750000Y-109750000D01*
X145250000Y-109750000D01*
X146642999Y-109750000D01*
X146642999Y-109542393D01*
X146642998Y-109542390D01*
X146640082Y-109499367D01*
X146640082Y-109499365D01*
X146593834Y-109313397D01*
X146508692Y-109141724D01*
X146388634Y-108992366D01*
X146388633Y-108992365D01*
X146239274Y-108872307D01*
X146239275Y-108872307D01*
X146067602Y-108787165D01*
X145881638Y-108740918D01*
X145881642Y-108740918D01*
X145838605Y-108738000D01*
X145250000Y-108738000D01*
X145250000Y-109750000D01*
X144750000Y-109750000D01*
X144750000Y-108738000D01*
X144161394Y-108738000D01*
X144161390Y-108738001D01*
X144118367Y-108740917D01*
X144118365Y-108740917D01*
X143932397Y-108787165D01*
X143760724Y-108872307D01*
X143611366Y-108992365D01*
X143611365Y-108992366D01*
X143491307Y-109141724D01*
X143406165Y-109313397D01*
X143359918Y-109499359D01*
X143357000Y-109542395D01*
X142750500Y-109542395D01*
X142750500Y-106362228D01*
X142770185Y-106295189D01*
X142786815Y-106274551D01*
X143308059Y-105753306D01*
X143344132Y-105730657D01*
X143343244Y-105728813D01*
X143349515Y-105725792D01*
X143349516Y-105725790D01*
X143349522Y-105725789D01*
X143502262Y-105629816D01*
X143629816Y-105502262D01*
X143725789Y-105349522D01*
X143785368Y-105179255D01*
X143805565Y-105000000D01*
X143785368Y-104820745D01*
X143725789Y-104650478D01*
X143629816Y-104497738D01*
X143502262Y-104370184D01*
X143349523Y-104274211D01*
X143179254Y-104214631D01*
X143179249Y-104214630D01*
X143000004Y-104194435D01*
X142999996Y-104194435D01*
X142820750Y-104214630D01*
X142820745Y-104214631D01*
X142650476Y-104274211D01*
X142497737Y-104370184D01*
X142370184Y-104497737D01*
X142274208Y-104650483D01*
X142271186Y-104656758D01*
X142269361Y-104655878D01*
X142246692Y-104691939D01*
X141417050Y-105521580D01*
X141417044Y-105521588D01*
X141367812Y-105595268D01*
X141367813Y-105595269D01*
X141334921Y-105644496D01*
X141334914Y-105644508D01*
X141278342Y-105781086D01*
X141278340Y-105781092D01*
X141249500Y-105926079D01*
X141249500Y-130637770D01*
X141229815Y-130704809D01*
X141213181Y-130725451D01*
X138415451Y-133523181D01*
X138354128Y-133556666D01*
X138327770Y-133559500D01*
X135639616Y-133559500D01*
X135572577Y-133539815D01*
X135528528Y-133490594D01*
X135509116Y-133451453D01*
X135388990Y-133302010D01*
X135388989Y-133302009D01*
X135239546Y-133181883D01*
X135239543Y-133181881D01*
X135067778Y-133096694D01*
X135067776Y-133096693D01*
X135067775Y-133096693D01*
X135029939Y-133087283D01*
X134881708Y-133050419D01*
X134857105Y-133048751D01*
X134838657Y-133047500D01*
X134838654Y-133047500D01*
X133161343Y-133047500D01*
X133161340Y-133047501D01*
X133118298Y-133050418D01*
X133118297Y-133050418D01*
X132932221Y-133096694D01*
X132760456Y-133181881D01*
X132760453Y-133181883D01*
X132611010Y-133302009D01*
X132611009Y-133302010D01*
X132490883Y-133451453D01*
X132490881Y-133451456D01*
X132405694Y-133623221D01*
X132359419Y-133809291D01*
X132356500Y-133852345D01*
X125500500Y-133852345D01*
X125500500Y-130957609D01*
X132357001Y-130957609D01*
X132359917Y-131000632D01*
X132359917Y-131000634D01*
X132406165Y-131186602D01*
X132491307Y-131358275D01*
X132611365Y-131507633D01*
X132611366Y-131507634D01*
X132760725Y-131627692D01*
X132760724Y-131627692D01*
X132932397Y-131712834D01*
X133118361Y-131759081D01*
X133118357Y-131759081D01*
X133161395Y-131761999D01*
X133749999Y-131761999D01*
X134250000Y-131761999D01*
X134838607Y-131761999D01*
X134838609Y-131761998D01*
X134881632Y-131759082D01*
X134881634Y-131759082D01*
X135067602Y-131712834D01*
X135239275Y-131627692D01*
X135388633Y-131507634D01*
X135388634Y-131507633D01*
X135508692Y-131358275D01*
X135593834Y-131186602D01*
X135640081Y-131000640D01*
X135643000Y-130957604D01*
X135643000Y-130750000D01*
X134250000Y-130750000D01*
X134250000Y-131761999D01*
X133749999Y-131761999D01*
X133750000Y-131761998D01*
X133750000Y-130750000D01*
X132357001Y-130750000D01*
X132357001Y-130957609D01*
X125500500Y-130957609D01*
X125500500Y-130042395D01*
X132357000Y-130042395D01*
X132357000Y-130250000D01*
X133750000Y-130250000D01*
X134250000Y-130250000D01*
X135642999Y-130250000D01*
X135642999Y-130042393D01*
X135642998Y-130042390D01*
X135640082Y-129999367D01*
X135640082Y-129999365D01*
X135593834Y-129813397D01*
X135508692Y-129641724D01*
X135388634Y-129492366D01*
X135388633Y-129492365D01*
X135239274Y-129372307D01*
X135239275Y-129372307D01*
X135067602Y-129287165D01*
X134881638Y-129240918D01*
X134881642Y-129240918D01*
X134838605Y-129238000D01*
X134250000Y-129238000D01*
X134250000Y-130250000D01*
X133750000Y-130250000D01*
X133750000Y-129238000D01*
X133161394Y-129238000D01*
X133161390Y-129238001D01*
X133118367Y-129240917D01*
X133118365Y-129240917D01*
X132932397Y-129287165D01*
X132760724Y-129372307D01*
X132611366Y-129492365D01*
X132611365Y-129492366D01*
X132491307Y-129641724D01*
X132406165Y-129813397D01*
X132359918Y-129999359D01*
X132357000Y-130042395D01*
X125500500Y-130042395D01*
X125500500Y-102352345D01*
X132356500Y-102352345D01*
X132356500Y-103267656D01*
X132356501Y-103267659D01*
X132359418Y-103310701D01*
X132359418Y-103310702D01*
X132379873Y-103392950D01*
X132400298Y-103475083D01*
X132405694Y-103496778D01*
X132490881Y-103668543D01*
X132490883Y-103668546D01*
X132611009Y-103817989D01*
X132611010Y-103817990D01*
X132760453Y-103938116D01*
X132760456Y-103938118D01*
X132901339Y-104007989D01*
X132932225Y-104023307D01*
X133082013Y-104060558D01*
X133118291Y-104069580D01*
X133118292Y-104069580D01*
X133118296Y-104069581D01*
X133161343Y-104072500D01*
X134838656Y-104072499D01*
X134881704Y-104069581D01*
X135067775Y-104023307D01*
X135239547Y-103938116D01*
X135388990Y-103817990D01*
X135509116Y-103668547D01*
X135528528Y-103629405D01*
X135575949Y-103578093D01*
X135639616Y-103560500D01*
X143263920Y-103560500D01*
X143361462Y-103541096D01*
X143408913Y-103531658D01*
X143545495Y-103475084D01*
X143594729Y-103442186D01*
X143668416Y-103392952D01*
X146308059Y-100753306D01*
X146344132Y-100730657D01*
X146343244Y-100728813D01*
X146349515Y-100725792D01*
X146349516Y-100725790D01*
X146349522Y-100725789D01*
X146502262Y-100629816D01*
X146629816Y-100502262D01*
X146725789Y-100349522D01*
X146785368Y-100179255D01*
X146805565Y-100000000D01*
X146785368Y-99820745D01*
X146725789Y-99650478D01*
X146723986Y-99647609D01*
X146631639Y-99500640D01*
X146629816Y-99497738D01*
X146502262Y-99370184D01*
X146349523Y-99274211D01*
X146179254Y-99214631D01*
X146179249Y-99214630D01*
X146000004Y-99194435D01*
X145999996Y-99194435D01*
X145820750Y-99214630D01*
X145820745Y-99214631D01*
X145650476Y-99274211D01*
X145497737Y-99370184D01*
X145370184Y-99497737D01*
X145274208Y-99650483D01*
X145271186Y-99656758D01*
X145269361Y-99655878D01*
X145246692Y-99691939D01*
X142915451Y-102023181D01*
X142854128Y-102056666D01*
X142827770Y-102059500D01*
X135639616Y-102059500D01*
X135572577Y-102039815D01*
X135528528Y-101990594D01*
X135509116Y-101951453D01*
X135388990Y-101802010D01*
X135388989Y-101802009D01*
X135239546Y-101681883D01*
X135239543Y-101681881D01*
X135067778Y-101596694D01*
X135067776Y-101596693D01*
X135067775Y-101596693D01*
X135029939Y-101587283D01*
X134881708Y-101550419D01*
X134857105Y-101548751D01*
X134838657Y-101547500D01*
X134838654Y-101547500D01*
X133161343Y-101547500D01*
X133161340Y-101547501D01*
X133118298Y-101550418D01*
X133118297Y-101550418D01*
X132932221Y-101596694D01*
X132760456Y-101681881D01*
X132760453Y-101681883D01*
X132611010Y-101802009D01*
X132611009Y-101802010D01*
X132490883Y-101951453D01*
X132490881Y-101951456D01*
X132405694Y-102123221D01*
X132359419Y-102309291D01*
X132356500Y-102352345D01*
X125500500Y-102352345D01*
X125500500Y-99457609D01*
X132357001Y-99457609D01*
X132359917Y-99500632D01*
X132359917Y-99500634D01*
X132406165Y-99686602D01*
X132491307Y-99858275D01*
X132611365Y-100007633D01*
X132611366Y-100007634D01*
X132760725Y-100127692D01*
X132760724Y-100127692D01*
X132932397Y-100212834D01*
X133118361Y-100259081D01*
X133118357Y-100259081D01*
X133161395Y-100261999D01*
X133749999Y-100261999D01*
X134250000Y-100261999D01*
X134838607Y-100261999D01*
X134838609Y-100261998D01*
X134881632Y-100259082D01*
X134881634Y-100259082D01*
X135067602Y-100212834D01*
X135239275Y-100127692D01*
X135388633Y-100007634D01*
X135388634Y-100007633D01*
X135508692Y-99858275D01*
X135593834Y-99686602D01*
X135640081Y-99500640D01*
X135643000Y-99457604D01*
X135643000Y-99250000D01*
X134250000Y-99250000D01*
X134250000Y-100261999D01*
X133749999Y-100261999D01*
X133750000Y-100261998D01*
X133750000Y-99250000D01*
X132357001Y-99250000D01*
X132357001Y-99457609D01*
X125500500Y-99457609D01*
X125500500Y-98542395D01*
X132357000Y-98542395D01*
X132357000Y-98750000D01*
X133750000Y-98750000D01*
X134250000Y-98750000D01*
X135642999Y-98750000D01*
X135642999Y-98542393D01*
X135642998Y-98542390D01*
X135640082Y-98499367D01*
X135640082Y-98499365D01*
X135593834Y-98313397D01*
X135508692Y-98141724D01*
X135388634Y-97992366D01*
X135388633Y-97992365D01*
X135239274Y-97872307D01*
X135239275Y-97872307D01*
X135067602Y-97787165D01*
X134881638Y-97740918D01*
X134881642Y-97740918D01*
X134838605Y-97738000D01*
X134250000Y-97738000D01*
X134250000Y-98750000D01*
X133750000Y-98750000D01*
X133750000Y-97738000D01*
X133161394Y-97738000D01*
X133161390Y-97738001D01*
X133118367Y-97740917D01*
X133118365Y-97740917D01*
X132932397Y-97787165D01*
X132760724Y-97872307D01*
X132611366Y-97992365D01*
X132611365Y-97992366D01*
X132491307Y-98141724D01*
X132406165Y-98313397D01*
X132359918Y-98499359D01*
X132357000Y-98542395D01*
X125500500Y-98542395D01*
X125500500Y-91352345D01*
X143356500Y-91352345D01*
X143356500Y-92267656D01*
X143356501Y-92267659D01*
X143359418Y-92310701D01*
X143359418Y-92310702D01*
X143405694Y-92496778D01*
X143490881Y-92668543D01*
X143490883Y-92668546D01*
X143611009Y-92817989D01*
X143611010Y-92817990D01*
X143760453Y-92938116D01*
X143760456Y-92938118D01*
X143885237Y-93000003D01*
X143932225Y-93023307D01*
X144082013Y-93060558D01*
X144118291Y-93069580D01*
X144118292Y-93069580D01*
X144118296Y-93069581D01*
X144161343Y-93072500D01*
X145838656Y-93072499D01*
X145881704Y-93069581D01*
X146067775Y-93023307D01*
X146239547Y-92938116D01*
X146388990Y-92817990D01*
X146509116Y-92668547D01*
X146528528Y-92629405D01*
X146575949Y-92578093D01*
X146639616Y-92560500D01*
X148130933Y-92560500D01*
X148197972Y-92580185D01*
X148243727Y-92632989D01*
X148253671Y-92702147D01*
X148247975Y-92725454D01*
X148214632Y-92820742D01*
X148214630Y-92820750D01*
X148194435Y-92999996D01*
X148194435Y-93000003D01*
X148214630Y-93179249D01*
X148214631Y-93179254D01*
X148242542Y-93259017D01*
X148249500Y-93299972D01*
X148249500Y-112137770D01*
X148229815Y-112204809D01*
X148213181Y-112225451D01*
X147415451Y-113023181D01*
X147354128Y-113056666D01*
X147327770Y-113059500D01*
X146639616Y-113059500D01*
X146572577Y-113039815D01*
X146528528Y-112990594D01*
X146509116Y-112951453D01*
X146388990Y-112802010D01*
X146388989Y-112802009D01*
X146239546Y-112681883D01*
X146239543Y-112681881D01*
X146067778Y-112596694D01*
X146067776Y-112596693D01*
X146067775Y-112596693D01*
X146029939Y-112587283D01*
X145881708Y-112550419D01*
X145857105Y-112548751D01*
X145838657Y-112547500D01*
X145838654Y-112547500D01*
X144161343Y-112547500D01*
X144161340Y-112547501D01*
X144118298Y-112550418D01*
X144118297Y-112550418D01*
X143932221Y-112596694D01*
X143760456Y-112681881D01*
X143760453Y-112681883D01*
X143611010Y-112802009D01*
X143611009Y-112802010D01*
X143490883Y-112951453D01*
X143490881Y-112951456D01*
X143405694Y-113123221D01*
X143359419Y-113309291D01*
X143356500Y-113352345D01*
X143356500Y-114267656D01*
X143356501Y-114267659D01*
X143359418Y-114310701D01*
X143359418Y-114310702D01*
X143379873Y-114392950D01*
X143400298Y-114475083D01*
X143405694Y-114496778D01*
X143490881Y-114668543D01*
X143490883Y-114668546D01*
X143611009Y-114817989D01*
X143611010Y-114817990D01*
X143760453Y-114938116D01*
X143760456Y-114938118D01*
X143926959Y-115020695D01*
X143932225Y-115023307D01*
X144082013Y-115060558D01*
X144118291Y-115069580D01*
X144118292Y-115069580D01*
X144118296Y-115069581D01*
X144161343Y-115072500D01*
X145838656Y-115072499D01*
X145881704Y-115069581D01*
X146067775Y-115023307D01*
X146239547Y-114938116D01*
X146388990Y-114817990D01*
X146509116Y-114668547D01*
X146528528Y-114629405D01*
X146575949Y-114578093D01*
X146639616Y-114560500D01*
X147763920Y-114560500D01*
X147861462Y-114541096D01*
X147908913Y-114531658D01*
X148045495Y-114475084D01*
X148094729Y-114442186D01*
X148168416Y-114392952D01*
X149582952Y-112978416D01*
X149632186Y-112904729D01*
X149665084Y-112855495D01*
X149721658Y-112718913D01*
X149731096Y-112671462D01*
X149750500Y-112573920D01*
X149750500Y-93299972D01*
X149757458Y-93259017D01*
X149785368Y-93179254D01*
X149785369Y-93179249D01*
X149805565Y-93000003D01*
X149805565Y-92999996D01*
X149785369Y-92820750D01*
X149785367Y-92820742D01*
X149752025Y-92725454D01*
X149748464Y-92655675D01*
X149783193Y-92595048D01*
X149845186Y-92562821D01*
X149869067Y-92560500D01*
X151130933Y-92560500D01*
X151197972Y-92580185D01*
X151243727Y-92632989D01*
X151253671Y-92702147D01*
X151247975Y-92725454D01*
X151214632Y-92820742D01*
X151214630Y-92820750D01*
X151194435Y-92999996D01*
X151194435Y-93000003D01*
X151214630Y-93179249D01*
X151214631Y-93179254D01*
X151242542Y-93259017D01*
X151249500Y-93299972D01*
X151249500Y-102073918D01*
X151249500Y-102073920D01*
X151249499Y-102073920D01*
X151278340Y-102218907D01*
X151278343Y-102218917D01*
X151334914Y-102355492D01*
X151367812Y-102404727D01*
X151367813Y-102404730D01*
X151417046Y-102478414D01*
X151417052Y-102478421D01*
X152417049Y-103478416D01*
X152521584Y-103582951D01*
X152521587Y-103582953D01*
X152521588Y-103582954D01*
X152644503Y-103665083D01*
X152644506Y-103665085D01*
X152696871Y-103686775D01*
X152696872Y-103686775D01*
X152781088Y-103721659D01*
X152897241Y-103744763D01*
X152916468Y-103748587D01*
X152926081Y-103750500D01*
X152926082Y-103750500D01*
X152926083Y-103750500D01*
X153073918Y-103750500D01*
X154360384Y-103750500D01*
X154427423Y-103770185D01*
X154471472Y-103819406D01*
X154490883Y-103858546D01*
X154611009Y-104007989D01*
X154611010Y-104007990D01*
X154760453Y-104128116D01*
X154760456Y-104128118D01*
X154894173Y-104194435D01*
X154932225Y-104213307D01*
X155082013Y-104250558D01*
X155118291Y-104259580D01*
X155118292Y-104259580D01*
X155118296Y-104259581D01*
X155161343Y-104262500D01*
X156838656Y-104262499D01*
X156881704Y-104259581D01*
X157067775Y-104213307D01*
X157239547Y-104128116D01*
X157388990Y-104007990D01*
X157509116Y-103858547D01*
X157594307Y-103686775D01*
X157640581Y-103500704D01*
X157643500Y-103457657D01*
X157643499Y-102542344D01*
X157640581Y-102499296D01*
X157594307Y-102313225D01*
X157591695Y-102307959D01*
X157509118Y-102141456D01*
X157509116Y-102141453D01*
X157388990Y-101992010D01*
X157388989Y-101992009D01*
X157239546Y-101871883D01*
X157239543Y-101871881D01*
X157067778Y-101786694D01*
X157067776Y-101786693D01*
X157067775Y-101786693D01*
X157029939Y-101777283D01*
X156881708Y-101740419D01*
X156857105Y-101738751D01*
X156838657Y-101737500D01*
X156838654Y-101737500D01*
X155161343Y-101737500D01*
X155161340Y-101737501D01*
X155118298Y-101740418D01*
X155118297Y-101740418D01*
X154932221Y-101786694D01*
X154760456Y-101871881D01*
X154760453Y-101871883D01*
X154611010Y-101992009D01*
X154611009Y-101992010D01*
X154490883Y-102141453D01*
X154471472Y-102180594D01*
X154424051Y-102231907D01*
X154360384Y-102249500D01*
X153362229Y-102249500D01*
X153295190Y-102229815D01*
X153274548Y-102213181D01*
X152786819Y-101725451D01*
X152753334Y-101664128D01*
X152750500Y-101637770D01*
X152750500Y-99647609D01*
X154357001Y-99647609D01*
X154359917Y-99690632D01*
X154359917Y-99690634D01*
X154406165Y-99876602D01*
X154491307Y-100048275D01*
X154611365Y-100197633D01*
X154611366Y-100197634D01*
X154760725Y-100317692D01*
X154760724Y-100317692D01*
X154932397Y-100402834D01*
X155118361Y-100449081D01*
X155118357Y-100449081D01*
X155161395Y-100451999D01*
X155749999Y-100451999D01*
X156250000Y-100451999D01*
X156838607Y-100451999D01*
X156838609Y-100451998D01*
X156881632Y-100449082D01*
X156881634Y-100449082D01*
X157067602Y-100402834D01*
X157239275Y-100317692D01*
X157388633Y-100197634D01*
X157388634Y-100197633D01*
X157508692Y-100048275D01*
X157593834Y-99876602D01*
X157640081Y-99690640D01*
X157643000Y-99647604D01*
X157643000Y-99440000D01*
X156250000Y-99440000D01*
X156250000Y-100451999D01*
X155749999Y-100451999D01*
X155750000Y-100451998D01*
X155750000Y-99440000D01*
X154357001Y-99440000D01*
X154357001Y-99647609D01*
X152750500Y-99647609D01*
X152750500Y-98732395D01*
X154357000Y-98732395D01*
X154357000Y-98940000D01*
X155750000Y-98940000D01*
X156250000Y-98940000D01*
X157642999Y-98940000D01*
X157642999Y-98732393D01*
X157642998Y-98732390D01*
X157640082Y-98689367D01*
X157640082Y-98689365D01*
X157593834Y-98503397D01*
X157508692Y-98331724D01*
X157388634Y-98182366D01*
X157388633Y-98182365D01*
X157239274Y-98062307D01*
X157239275Y-98062307D01*
X157067602Y-97977165D01*
X156881638Y-97930918D01*
X156881642Y-97930918D01*
X156838605Y-97928000D01*
X156250000Y-97928000D01*
X156250000Y-98940000D01*
X155750000Y-98940000D01*
X155750000Y-97928000D01*
X155161394Y-97928000D01*
X155161390Y-97928001D01*
X155118367Y-97930917D01*
X155118365Y-97930917D01*
X154932397Y-97977165D01*
X154760724Y-98062307D01*
X154611366Y-98182365D01*
X154611365Y-98182366D01*
X154491307Y-98331724D01*
X154406165Y-98503397D01*
X154359918Y-98689359D01*
X154357000Y-98732395D01*
X152750500Y-98732395D01*
X152750500Y-93299972D01*
X152757458Y-93259017D01*
X152785368Y-93179254D01*
X152785369Y-93179249D01*
X152805565Y-93000003D01*
X152805565Y-92999996D01*
X152785369Y-92820750D01*
X152785367Y-92820742D01*
X152752025Y-92725454D01*
X152748464Y-92655675D01*
X152783193Y-92595048D01*
X152845186Y-92562821D01*
X152869067Y-92560500D01*
X153763920Y-92560500D01*
X153861462Y-92541096D01*
X153908913Y-92531658D01*
X154045495Y-92475084D01*
X154132351Y-92417049D01*
X154132353Y-92417048D01*
X154168409Y-92392957D01*
X154168410Y-92392955D01*
X154168416Y-92392952D01*
X155390255Y-91171112D01*
X155472388Y-91048191D01*
X155475858Y-91039815D01*
X155528960Y-90911613D01*
X155528962Y-90911609D01*
X155550763Y-90802010D01*
X155557804Y-90766616D01*
X155557804Y-88273695D01*
X155564762Y-88232740D01*
X155592672Y-88152977D01*
X155592673Y-88152972D01*
X155612869Y-87973726D01*
X155612869Y-87973719D01*
X155592673Y-87794473D01*
X155592672Y-87794468D01*
X155533092Y-87624199D01*
X155481691Y-87542395D01*
X155437120Y-87471461D01*
X155309566Y-87343907D01*
X155261010Y-87313397D01*
X155156827Y-87247934D01*
X154986558Y-87188354D01*
X154986553Y-87188353D01*
X154807308Y-87168158D01*
X154807300Y-87168158D01*
X154628054Y-87188353D01*
X154628049Y-87188354D01*
X154457780Y-87247934D01*
X154305041Y-87343907D01*
X154177488Y-87471460D01*
X154081515Y-87624199D01*
X154021935Y-87794468D01*
X154021934Y-87794473D01*
X154001739Y-87973719D01*
X154001739Y-87973726D01*
X154021934Y-88152972D01*
X154021935Y-88152977D01*
X154049846Y-88232740D01*
X154056804Y-88273695D01*
X154056804Y-90330466D01*
X154037119Y-90397505D01*
X154020485Y-90418147D01*
X153415451Y-91023181D01*
X153354128Y-91056666D01*
X153327770Y-91059500D01*
X146639616Y-91059500D01*
X146572577Y-91039815D01*
X146528528Y-90990594D01*
X146509116Y-90951453D01*
X146388990Y-90802010D01*
X146388989Y-90802009D01*
X146239546Y-90681883D01*
X146239543Y-90681881D01*
X146067778Y-90596694D01*
X146067776Y-90596693D01*
X146067775Y-90596693D01*
X146029939Y-90587283D01*
X145881708Y-90550419D01*
X145857105Y-90548751D01*
X145838657Y-90547500D01*
X145838654Y-90547500D01*
X144161343Y-90547500D01*
X144161340Y-90547501D01*
X144118298Y-90550418D01*
X144118297Y-90550418D01*
X143932221Y-90596694D01*
X143760456Y-90681881D01*
X143760453Y-90681883D01*
X143611010Y-90802009D01*
X143611009Y-90802010D01*
X143490883Y-90951453D01*
X143490881Y-90951456D01*
X143405694Y-91123221D01*
X143359419Y-91309291D01*
X143356500Y-91352345D01*
X125500500Y-91352345D01*
X125500500Y-88457609D01*
X143357001Y-88457609D01*
X143359917Y-88500632D01*
X143359917Y-88500634D01*
X143406165Y-88686602D01*
X143491307Y-88858275D01*
X143611365Y-89007633D01*
X143611366Y-89007634D01*
X143760725Y-89127692D01*
X143760724Y-89127692D01*
X143932397Y-89212834D01*
X144118361Y-89259081D01*
X144118357Y-89259081D01*
X144161395Y-89261999D01*
X144749999Y-89261999D01*
X145250000Y-89261999D01*
X145838607Y-89261999D01*
X145838609Y-89261998D01*
X145881632Y-89259082D01*
X145881634Y-89259082D01*
X146067602Y-89212834D01*
X146239275Y-89127692D01*
X146388633Y-89007634D01*
X146388634Y-89007633D01*
X146508692Y-88858275D01*
X146593834Y-88686602D01*
X146640081Y-88500640D01*
X146643000Y-88457604D01*
X146643000Y-88250000D01*
X145250000Y-88250000D01*
X145250000Y-89261999D01*
X144749999Y-89261999D01*
X144750000Y-89261998D01*
X144750000Y-88250000D01*
X143357001Y-88250000D01*
X143357001Y-88457609D01*
X125500500Y-88457609D01*
X125500500Y-87542395D01*
X143357000Y-87542395D01*
X143357000Y-87750000D01*
X144750000Y-87750000D01*
X145250000Y-87750000D01*
X146642999Y-87750000D01*
X146642999Y-87542393D01*
X146642998Y-87542390D01*
X146640082Y-87499367D01*
X146640082Y-87499365D01*
X146593834Y-87313397D01*
X146508692Y-87141724D01*
X146388634Y-86992366D01*
X146388633Y-86992365D01*
X146239274Y-86872307D01*
X146239275Y-86872307D01*
X146067602Y-86787165D01*
X145881638Y-86740918D01*
X145881642Y-86740918D01*
X145838605Y-86738000D01*
X145250000Y-86738000D01*
X145250000Y-87750000D01*
X144750000Y-87750000D01*
X144750000Y-86738000D01*
X144161394Y-86738000D01*
X144161390Y-86738001D01*
X144118367Y-86740917D01*
X144118365Y-86740917D01*
X143932397Y-86787165D01*
X143760724Y-86872307D01*
X143611366Y-86992365D01*
X143611365Y-86992366D01*
X143491307Y-87141724D01*
X143406165Y-87313397D01*
X143359918Y-87499359D01*
X143357000Y-87542395D01*
X125500500Y-87542395D01*
X125500500Y-77250000D01*
X135152970Y-77250000D01*
X136095854Y-77250000D01*
X136057370Y-77316657D01*
X136025000Y-77437465D01*
X136025000Y-77562535D01*
X136057370Y-77683343D01*
X136095854Y-77750000D01*
X135152970Y-77750000D01*
X135183242Y-77941127D01*
X135183242Y-77941130D01*
X135248904Y-78143217D01*
X135345379Y-78332557D01*
X135470272Y-78504459D01*
X135470276Y-78504464D01*
X135620535Y-78654723D01*
X135620540Y-78654727D01*
X135792442Y-78779620D01*
X135981782Y-78876095D01*
X136183871Y-78941757D01*
X136250000Y-78952231D01*
X136250000Y-77904145D01*
X136316657Y-77942630D01*
X136437465Y-77975000D01*
X136562535Y-77975000D01*
X136683343Y-77942630D01*
X136750000Y-77904145D01*
X136750000Y-78952230D01*
X136816126Y-78941757D01*
X136816129Y-78941757D01*
X137018217Y-78876095D01*
X137207557Y-78779620D01*
X137379459Y-78654727D01*
X137379464Y-78654723D01*
X137529721Y-78504466D01*
X137649371Y-78339781D01*
X137704701Y-78297115D01*
X137774314Y-78291136D01*
X137836110Y-78323741D01*
X137850008Y-78339781D01*
X137969890Y-78504785D01*
X137969894Y-78504790D01*
X138120213Y-78655109D01*
X138292179Y-78780048D01*
X138292181Y-78780049D01*
X138292184Y-78780051D01*
X138481588Y-78876557D01*
X138683757Y-78942246D01*
X138893713Y-78975500D01*
X138893714Y-78975500D01*
X139106286Y-78975500D01*
X139106287Y-78975500D01*
X139316243Y-78942246D01*
X139518412Y-78876557D01*
X139707816Y-78780051D01*
X139729789Y-78764086D01*
X139879786Y-78655109D01*
X139879788Y-78655106D01*
X139879792Y-78655104D01*
X140030104Y-78504792D01*
X140149683Y-78340204D01*
X140205011Y-78297540D01*
X140274624Y-78291561D01*
X140336420Y-78324166D01*
X140350313Y-78340199D01*
X140453925Y-78482809D01*
X140469896Y-78504792D01*
X140620213Y-78655109D01*
X140792179Y-78780048D01*
X140792181Y-78780049D01*
X140792184Y-78780051D01*
X140981588Y-78876557D01*
X141183757Y-78942246D01*
X141393713Y-78975500D01*
X141393714Y-78975500D01*
X141606286Y-78975500D01*
X141606287Y-78975500D01*
X141816243Y-78942246D01*
X142018412Y-78876557D01*
X142207816Y-78780051D01*
X142229789Y-78764086D01*
X142379786Y-78655109D01*
X142379788Y-78655106D01*
X142379792Y-78655104D01*
X142530104Y-78504792D01*
X142649683Y-78340204D01*
X142705011Y-78297540D01*
X142774624Y-78291561D01*
X142836420Y-78324166D01*
X142850313Y-78340199D01*
X142953925Y-78482809D01*
X142969896Y-78504792D01*
X143120213Y-78655109D01*
X143292179Y-78780048D01*
X143292181Y-78780049D01*
X143292184Y-78780051D01*
X143481588Y-78876557D01*
X143683757Y-78942246D01*
X143893713Y-78975500D01*
X143893714Y-78975500D01*
X144106286Y-78975500D01*
X144106287Y-78975500D01*
X144316243Y-78942246D01*
X144518412Y-78876557D01*
X144707816Y-78780051D01*
X144729789Y-78764086D01*
X144879786Y-78655109D01*
X144879788Y-78655106D01*
X144879792Y-78655104D01*
X145030104Y-78504792D01*
X145149683Y-78340204D01*
X145205011Y-78297540D01*
X145274624Y-78291561D01*
X145336420Y-78324166D01*
X145350313Y-78340199D01*
X145453925Y-78482809D01*
X145469896Y-78504792D01*
X145620213Y-78655109D01*
X145792179Y-78780048D01*
X145792181Y-78780049D01*
X145792184Y-78780051D01*
X145981588Y-78876557D01*
X146183757Y-78942246D01*
X146393713Y-78975500D01*
X146393714Y-78975500D01*
X146606286Y-78975500D01*
X146606287Y-78975500D01*
X146816243Y-78942246D01*
X147018412Y-78876557D01*
X147207816Y-78780051D01*
X147229789Y-78764086D01*
X147379786Y-78655109D01*
X147379788Y-78655106D01*
X147379792Y-78655104D01*
X147530104Y-78504792D01*
X147649683Y-78340204D01*
X147705011Y-78297540D01*
X147774624Y-78291561D01*
X147836420Y-78324166D01*
X147850313Y-78340199D01*
X147953925Y-78482809D01*
X147969896Y-78504792D01*
X148120213Y-78655109D01*
X148292179Y-78780048D01*
X148292181Y-78780049D01*
X148292184Y-78780051D01*
X148481588Y-78876557D01*
X148683757Y-78942246D01*
X148893713Y-78975500D01*
X148893714Y-78975500D01*
X149106286Y-78975500D01*
X149106287Y-78975500D01*
X149316243Y-78942246D01*
X149518412Y-78876557D01*
X149707816Y-78780051D01*
X149729789Y-78764086D01*
X149879786Y-78655109D01*
X149879788Y-78655106D01*
X149879792Y-78655104D01*
X150030104Y-78504792D01*
X150149683Y-78340204D01*
X150205011Y-78297540D01*
X150274624Y-78291561D01*
X150336420Y-78324166D01*
X150350313Y-78340199D01*
X150453925Y-78482809D01*
X150469896Y-78504792D01*
X150620213Y-78655109D01*
X150792179Y-78780048D01*
X150792181Y-78780049D01*
X150792184Y-78780051D01*
X150981588Y-78876557D01*
X151183757Y-78942246D01*
X151393713Y-78975500D01*
X151393714Y-78975500D01*
X151606286Y-78975500D01*
X151606287Y-78975500D01*
X151816243Y-78942246D01*
X152018412Y-78876557D01*
X152207816Y-78780051D01*
X152379792Y-78655104D01*
X152518604Y-78516291D01*
X152579923Y-78482809D01*
X152649615Y-78487793D01*
X152705549Y-78529664D01*
X152711821Y-78538878D01*
X152715185Y-78544333D01*
X152715186Y-78544334D01*
X152807288Y-78693656D01*
X152931344Y-78817712D01*
X153080666Y-78909814D01*
X153247203Y-78964999D01*
X153349991Y-78975500D01*
X154650008Y-78975499D01*
X154752797Y-78964999D01*
X154919334Y-78909814D01*
X155068656Y-78817712D01*
X155192712Y-78693656D01*
X155284814Y-78544334D01*
X155339999Y-78377797D01*
X155350500Y-78275009D01*
X155350499Y-76724992D01*
X155348851Y-76708863D01*
X155339999Y-76622203D01*
X155339998Y-76622200D01*
X155302104Y-76507845D01*
X155284814Y-76455666D01*
X155192712Y-76306344D01*
X155068656Y-76182288D01*
X154919334Y-76090186D01*
X154752797Y-76035001D01*
X154752795Y-76035000D01*
X154650010Y-76024500D01*
X153349998Y-76024500D01*
X153349981Y-76024501D01*
X153247203Y-76035000D01*
X153247200Y-76035001D01*
X153080668Y-76090185D01*
X153080663Y-76090187D01*
X152931342Y-76182289D01*
X152807289Y-76306342D01*
X152711821Y-76461121D01*
X152659873Y-76507845D01*
X152590910Y-76519068D01*
X152526828Y-76491224D01*
X152518601Y-76483705D01*
X152379786Y-76344890D01*
X152207820Y-76219951D01*
X152018414Y-76123444D01*
X152018413Y-76123443D01*
X152018412Y-76123443D01*
X151816243Y-76057754D01*
X151816241Y-76057753D01*
X151816240Y-76057753D01*
X151654957Y-76032208D01*
X151606287Y-76024500D01*
X151393713Y-76024500D01*
X151345042Y-76032208D01*
X151183760Y-76057753D01*
X150981585Y-76123444D01*
X150792179Y-76219951D01*
X150620213Y-76344890D01*
X150469894Y-76495209D01*
X150469890Y-76495214D01*
X150350318Y-76659793D01*
X150294989Y-76702459D01*
X150225375Y-76708438D01*
X150163580Y-76675833D01*
X150149682Y-76659793D01*
X150030109Y-76495214D01*
X150030105Y-76495209D01*
X149879786Y-76344890D01*
X149707820Y-76219951D01*
X149518414Y-76123444D01*
X149518413Y-76123443D01*
X149518412Y-76123443D01*
X149316243Y-76057754D01*
X149316241Y-76057753D01*
X149316240Y-76057753D01*
X149154957Y-76032208D01*
X149106287Y-76024500D01*
X148893713Y-76024500D01*
X148845042Y-76032208D01*
X148683760Y-76057753D01*
X148481585Y-76123444D01*
X148292179Y-76219951D01*
X148120213Y-76344890D01*
X147969894Y-76495209D01*
X147969890Y-76495214D01*
X147850318Y-76659793D01*
X147794989Y-76702459D01*
X147725375Y-76708438D01*
X147663580Y-76675833D01*
X147649682Y-76659793D01*
X147530109Y-76495214D01*
X147530105Y-76495209D01*
X147379786Y-76344890D01*
X147207820Y-76219951D01*
X147018414Y-76123444D01*
X147018413Y-76123443D01*
X147018412Y-76123443D01*
X146816243Y-76057754D01*
X146816241Y-76057753D01*
X146816240Y-76057753D01*
X146654957Y-76032208D01*
X146606287Y-76024500D01*
X146393713Y-76024500D01*
X146345042Y-76032208D01*
X146183760Y-76057753D01*
X145981585Y-76123444D01*
X145792179Y-76219951D01*
X145620213Y-76344890D01*
X145469894Y-76495209D01*
X145469890Y-76495214D01*
X145350318Y-76659793D01*
X145294989Y-76702459D01*
X145225375Y-76708438D01*
X145163580Y-76675833D01*
X145149682Y-76659793D01*
X145030109Y-76495214D01*
X145030105Y-76495209D01*
X144879786Y-76344890D01*
X144707820Y-76219951D01*
X144518414Y-76123444D01*
X144518413Y-76123443D01*
X144518412Y-76123443D01*
X144316243Y-76057754D01*
X144316241Y-76057753D01*
X144316240Y-76057753D01*
X144154957Y-76032208D01*
X144106287Y-76024500D01*
X143893713Y-76024500D01*
X143845042Y-76032208D01*
X143683760Y-76057753D01*
X143481585Y-76123444D01*
X143292179Y-76219951D01*
X143120213Y-76344890D01*
X142969894Y-76495209D01*
X142969890Y-76495214D01*
X142850318Y-76659793D01*
X142794989Y-76702459D01*
X142725375Y-76708438D01*
X142663580Y-76675833D01*
X142649682Y-76659793D01*
X142530109Y-76495214D01*
X142530105Y-76495209D01*
X142379786Y-76344890D01*
X142207820Y-76219951D01*
X142018414Y-76123444D01*
X142018413Y-76123443D01*
X142018412Y-76123443D01*
X141816243Y-76057754D01*
X141816241Y-76057753D01*
X141816240Y-76057753D01*
X141654957Y-76032208D01*
X141606287Y-76024500D01*
X141393713Y-76024500D01*
X141345042Y-76032208D01*
X141183760Y-76057753D01*
X140981585Y-76123444D01*
X140792179Y-76219951D01*
X140620213Y-76344890D01*
X140469894Y-76495209D01*
X140469890Y-76495214D01*
X140350318Y-76659793D01*
X140294989Y-76702459D01*
X140225375Y-76708438D01*
X140163580Y-76675833D01*
X140149682Y-76659793D01*
X140030109Y-76495214D01*
X140030105Y-76495209D01*
X139879786Y-76344890D01*
X139707820Y-76219951D01*
X139518414Y-76123444D01*
X139518413Y-76123443D01*
X139518412Y-76123443D01*
X139316243Y-76057754D01*
X139316241Y-76057753D01*
X139316240Y-76057753D01*
X139154957Y-76032208D01*
X139106287Y-76024500D01*
X138893713Y-76024500D01*
X138845042Y-76032208D01*
X138683760Y-76057753D01*
X138481585Y-76123444D01*
X138292179Y-76219951D01*
X138120213Y-76344890D01*
X137969894Y-76495209D01*
X137969890Y-76495214D01*
X137850008Y-76660218D01*
X137794678Y-76702884D01*
X137725065Y-76708863D01*
X137663270Y-76676257D01*
X137649372Y-76660218D01*
X137529727Y-76495540D01*
X137529723Y-76495535D01*
X137379464Y-76345276D01*
X137379459Y-76345272D01*
X137207557Y-76220379D01*
X137018215Y-76123903D01*
X136816124Y-76058241D01*
X136750000Y-76047768D01*
X136750000Y-77095854D01*
X136683343Y-77057370D01*
X136562535Y-77025000D01*
X136437465Y-77025000D01*
X136316657Y-77057370D01*
X136250000Y-77095854D01*
X136250000Y-76047768D01*
X136249999Y-76047768D01*
X136183875Y-76058241D01*
X135981784Y-76123903D01*
X135792442Y-76220379D01*
X135620540Y-76345272D01*
X135620535Y-76345276D01*
X135470276Y-76495535D01*
X135470272Y-76495540D01*
X135345379Y-76667442D01*
X135248904Y-76856782D01*
X135183242Y-77058869D01*
X135183242Y-77058872D01*
X135152970Y-77250000D01*
X125500500Y-77250000D01*
X125500500Y-75624500D01*
X125520185Y-75557461D01*
X125572989Y-75511706D01*
X125624500Y-75500500D01*
X164375500Y-75500500D01*
X164442539Y-75520185D01*
G37*
%TD.AperFunction*%
%TD*%
M02*
