%TF.GenerationSoftware,KiCad,Pcbnew,8.0.3*%
%TF.CreationDate,2024-07-03T14:55:21+02:00*%
%TF.ProjectId,Game Console PCB,47616d65-2043-46f6-9e73-6f6c65205043,rev?*%
%TF.SameCoordinates,Original*%
%TF.FileFunction,Drillmap*%
%TF.FilePolarity,Positive*%
%FSLAX45Y45*%
G04 Gerber Fmt 4.5, Leading zero omitted, Abs format (unit mm)*
G04 Created by KiCad (PCBNEW 8.0.3) date 2024-07-03 14:55:21*
%MOMM*%
%LPD*%
G01*
G04 APERTURE LIST*
%ADD10C,0.050000*%
%ADD11C,0.200000*%
G04 APERTURE END LIST*
D10*
X16500000Y-14200000D02*
X12500000Y-14200000D01*
X12500000Y-14200000D02*
X12500000Y-7500000D01*
X12500000Y-7500000D02*
X16500000Y-7500000D01*
X16500000Y-7500000D02*
X16500000Y-14200000D01*
D11*
X12758277Y-14513984D02*
X12758277Y-14313984D01*
X12758277Y-14313984D02*
X12805896Y-14313984D01*
X12805896Y-14313984D02*
X12834467Y-14323508D01*
X12834467Y-14323508D02*
X12853515Y-14342555D01*
X12853515Y-14342555D02*
X12863039Y-14361603D01*
X12863039Y-14361603D02*
X12872562Y-14399698D01*
X12872562Y-14399698D02*
X12872562Y-14428269D01*
X12872562Y-14428269D02*
X12863039Y-14466365D01*
X12863039Y-14466365D02*
X12853515Y-14485412D01*
X12853515Y-14485412D02*
X12834467Y-14504460D01*
X12834467Y-14504460D02*
X12805896Y-14513984D01*
X12805896Y-14513984D02*
X12758277Y-14513984D01*
X12958277Y-14513984D02*
X12958277Y-14380650D01*
X12958277Y-14418746D02*
X12967801Y-14399698D01*
X12967801Y-14399698D02*
X12977324Y-14390174D01*
X12977324Y-14390174D02*
X12996372Y-14380650D01*
X12996372Y-14380650D02*
X13015420Y-14380650D01*
X13082086Y-14513984D02*
X13082086Y-14380650D01*
X13082086Y-14313984D02*
X13072562Y-14323508D01*
X13072562Y-14323508D02*
X13082086Y-14333031D01*
X13082086Y-14333031D02*
X13091610Y-14323508D01*
X13091610Y-14323508D02*
X13082086Y-14313984D01*
X13082086Y-14313984D02*
X13082086Y-14333031D01*
X13205896Y-14513984D02*
X13186848Y-14504460D01*
X13186848Y-14504460D02*
X13177324Y-14485412D01*
X13177324Y-14485412D02*
X13177324Y-14313984D01*
X13310658Y-14513984D02*
X13291610Y-14504460D01*
X13291610Y-14504460D02*
X13282086Y-14485412D01*
X13282086Y-14485412D02*
X13282086Y-14313984D01*
X13539229Y-14513984D02*
X13539229Y-14313984D01*
X13539229Y-14313984D02*
X13605896Y-14456841D01*
X13605896Y-14456841D02*
X13672562Y-14313984D01*
X13672562Y-14313984D02*
X13672562Y-14513984D01*
X13853515Y-14513984D02*
X13853515Y-14409222D01*
X13853515Y-14409222D02*
X13843991Y-14390174D01*
X13843991Y-14390174D02*
X13824943Y-14380650D01*
X13824943Y-14380650D02*
X13786848Y-14380650D01*
X13786848Y-14380650D02*
X13767801Y-14390174D01*
X13853515Y-14504460D02*
X13834467Y-14513984D01*
X13834467Y-14513984D02*
X13786848Y-14513984D01*
X13786848Y-14513984D02*
X13767801Y-14504460D01*
X13767801Y-14504460D02*
X13758277Y-14485412D01*
X13758277Y-14485412D02*
X13758277Y-14466365D01*
X13758277Y-14466365D02*
X13767801Y-14447317D01*
X13767801Y-14447317D02*
X13786848Y-14437793D01*
X13786848Y-14437793D02*
X13834467Y-14437793D01*
X13834467Y-14437793D02*
X13853515Y-14428269D01*
X13948753Y-14380650D02*
X13948753Y-14580650D01*
X13948753Y-14390174D02*
X13967801Y-14380650D01*
X13967801Y-14380650D02*
X14005896Y-14380650D01*
X14005896Y-14380650D02*
X14024943Y-14390174D01*
X14024943Y-14390174D02*
X14034467Y-14399698D01*
X14034467Y-14399698D02*
X14043991Y-14418746D01*
X14043991Y-14418746D02*
X14043991Y-14475888D01*
X14043991Y-14475888D02*
X14034467Y-14494936D01*
X14034467Y-14494936D02*
X14024943Y-14504460D01*
X14024943Y-14504460D02*
X14005896Y-14513984D01*
X14005896Y-14513984D02*
X13967801Y-14513984D01*
X13967801Y-14513984D02*
X13948753Y-14504460D01*
X14129705Y-14494936D02*
X14139229Y-14504460D01*
X14139229Y-14504460D02*
X14129705Y-14513984D01*
X14129705Y-14513984D02*
X14120182Y-14504460D01*
X14120182Y-14504460D02*
X14129705Y-14494936D01*
X14129705Y-14494936D02*
X14129705Y-14513984D01*
X14129705Y-14390174D02*
X14139229Y-14399698D01*
X14139229Y-14399698D02*
X14129705Y-14409222D01*
X14129705Y-14409222D02*
X14120182Y-14399698D01*
X14120182Y-14399698D02*
X14129705Y-14390174D01*
X14129705Y-14390174D02*
X14129705Y-14409222D01*
M02*
