%TF.GenerationSoftware,KiCad,Pcbnew,8.0.3*%
%TF.CreationDate,2024-07-03T14:55:16+02:00*%
%TF.ProjectId,Game Console PCB,47616d65-2043-46f6-9e73-6f6c65205043,rev?*%
%TF.SameCoordinates,Original*%
%TF.FileFunction,Legend,Top*%
%TF.FilePolarity,Positive*%
%FSLAX46Y46*%
G04 Gerber Fmt 4.6, Leading zero omitted, Abs format (unit mm)*
G04 Created by KiCad (PCBNEW 8.0.3) date 2024-07-03 14:55:16*
%MOMM*%
%LPD*%
G01*
G04 APERTURE LIST*
%ADD10C,0.150000*%
%ADD11C,0.120000*%
G04 APERTURE END LIST*
D10*
X143666667Y-107907200D02*
X143809524Y-107954819D01*
X143809524Y-107954819D02*
X144047619Y-107954819D01*
X144047619Y-107954819D02*
X144142857Y-107907200D01*
X144142857Y-107907200D02*
X144190476Y-107859580D01*
X144190476Y-107859580D02*
X144238095Y-107764342D01*
X144238095Y-107764342D02*
X144238095Y-107669104D01*
X144238095Y-107669104D02*
X144190476Y-107573866D01*
X144190476Y-107573866D02*
X144142857Y-107526247D01*
X144142857Y-107526247D02*
X144047619Y-107478628D01*
X144047619Y-107478628D02*
X143857143Y-107431009D01*
X143857143Y-107431009D02*
X143761905Y-107383390D01*
X143761905Y-107383390D02*
X143714286Y-107335771D01*
X143714286Y-107335771D02*
X143666667Y-107240533D01*
X143666667Y-107240533D02*
X143666667Y-107145295D01*
X143666667Y-107145295D02*
X143714286Y-107050057D01*
X143714286Y-107050057D02*
X143761905Y-107002438D01*
X143761905Y-107002438D02*
X143857143Y-106954819D01*
X143857143Y-106954819D02*
X144095238Y-106954819D01*
X144095238Y-106954819D02*
X144238095Y-107002438D01*
X144571429Y-106954819D02*
X144809524Y-107954819D01*
X144809524Y-107954819D02*
X145000000Y-107240533D01*
X145000000Y-107240533D02*
X145190476Y-107954819D01*
X145190476Y-107954819D02*
X145428572Y-106954819D01*
X145714286Y-106954819D02*
X146333333Y-106954819D01*
X146333333Y-106954819D02*
X146000000Y-107335771D01*
X146000000Y-107335771D02*
X146142857Y-107335771D01*
X146142857Y-107335771D02*
X146238095Y-107383390D01*
X146238095Y-107383390D02*
X146285714Y-107431009D01*
X146285714Y-107431009D02*
X146333333Y-107526247D01*
X146333333Y-107526247D02*
X146333333Y-107764342D01*
X146333333Y-107764342D02*
X146285714Y-107859580D01*
X146285714Y-107859580D02*
X146238095Y-107907200D01*
X146238095Y-107907200D02*
X146142857Y-107954819D01*
X146142857Y-107954819D02*
X145857143Y-107954819D01*
X145857143Y-107954819D02*
X145761905Y-107907200D01*
X145761905Y-107907200D02*
X145714286Y-107859580D01*
X143666667Y-85907200D02*
X143809524Y-85954819D01*
X143809524Y-85954819D02*
X144047619Y-85954819D01*
X144047619Y-85954819D02*
X144142857Y-85907200D01*
X144142857Y-85907200D02*
X144190476Y-85859580D01*
X144190476Y-85859580D02*
X144238095Y-85764342D01*
X144238095Y-85764342D02*
X144238095Y-85669104D01*
X144238095Y-85669104D02*
X144190476Y-85573866D01*
X144190476Y-85573866D02*
X144142857Y-85526247D01*
X144142857Y-85526247D02*
X144047619Y-85478628D01*
X144047619Y-85478628D02*
X143857143Y-85431009D01*
X143857143Y-85431009D02*
X143761905Y-85383390D01*
X143761905Y-85383390D02*
X143714286Y-85335771D01*
X143714286Y-85335771D02*
X143666667Y-85240533D01*
X143666667Y-85240533D02*
X143666667Y-85145295D01*
X143666667Y-85145295D02*
X143714286Y-85050057D01*
X143714286Y-85050057D02*
X143761905Y-85002438D01*
X143761905Y-85002438D02*
X143857143Y-84954819D01*
X143857143Y-84954819D02*
X144095238Y-84954819D01*
X144095238Y-84954819D02*
X144238095Y-85002438D01*
X144571429Y-84954819D02*
X144809524Y-85954819D01*
X144809524Y-85954819D02*
X145000000Y-85240533D01*
X145000000Y-85240533D02*
X145190476Y-85954819D01*
X145190476Y-85954819D02*
X145428572Y-84954819D01*
X146333333Y-85954819D02*
X145761905Y-85954819D01*
X146047619Y-85954819D02*
X146047619Y-84954819D01*
X146047619Y-84954819D02*
X145952381Y-85097676D01*
X145952381Y-85097676D02*
X145857143Y-85192914D01*
X145857143Y-85192914D02*
X145761905Y-85240533D01*
X132666667Y-128407200D02*
X132809524Y-128454819D01*
X132809524Y-128454819D02*
X133047619Y-128454819D01*
X133047619Y-128454819D02*
X133142857Y-128407200D01*
X133142857Y-128407200D02*
X133190476Y-128359580D01*
X133190476Y-128359580D02*
X133238095Y-128264342D01*
X133238095Y-128264342D02*
X133238095Y-128169104D01*
X133238095Y-128169104D02*
X133190476Y-128073866D01*
X133190476Y-128073866D02*
X133142857Y-128026247D01*
X133142857Y-128026247D02*
X133047619Y-127978628D01*
X133047619Y-127978628D02*
X132857143Y-127931009D01*
X132857143Y-127931009D02*
X132761905Y-127883390D01*
X132761905Y-127883390D02*
X132714286Y-127835771D01*
X132714286Y-127835771D02*
X132666667Y-127740533D01*
X132666667Y-127740533D02*
X132666667Y-127645295D01*
X132666667Y-127645295D02*
X132714286Y-127550057D01*
X132714286Y-127550057D02*
X132761905Y-127502438D01*
X132761905Y-127502438D02*
X132857143Y-127454819D01*
X132857143Y-127454819D02*
X133095238Y-127454819D01*
X133095238Y-127454819D02*
X133238095Y-127502438D01*
X133571429Y-127454819D02*
X133809524Y-128454819D01*
X133809524Y-128454819D02*
X134000000Y-127740533D01*
X134000000Y-127740533D02*
X134190476Y-128454819D01*
X134190476Y-128454819D02*
X134428572Y-127454819D01*
X135285714Y-127454819D02*
X134809524Y-127454819D01*
X134809524Y-127454819D02*
X134761905Y-127931009D01*
X134761905Y-127931009D02*
X134809524Y-127883390D01*
X134809524Y-127883390D02*
X134904762Y-127835771D01*
X134904762Y-127835771D02*
X135142857Y-127835771D01*
X135142857Y-127835771D02*
X135238095Y-127883390D01*
X135238095Y-127883390D02*
X135285714Y-127931009D01*
X135285714Y-127931009D02*
X135333333Y-128026247D01*
X135333333Y-128026247D02*
X135333333Y-128264342D01*
X135333333Y-128264342D02*
X135285714Y-128359580D01*
X135285714Y-128359580D02*
X135238095Y-128407200D01*
X135238095Y-128407200D02*
X135142857Y-128454819D01*
X135142857Y-128454819D02*
X134904762Y-128454819D01*
X134904762Y-128454819D02*
X134809524Y-128407200D01*
X134809524Y-128407200D02*
X134761905Y-128359580D01*
X154666667Y-128407200D02*
X154809524Y-128454819D01*
X154809524Y-128454819D02*
X155047619Y-128454819D01*
X155047619Y-128454819D02*
X155142857Y-128407200D01*
X155142857Y-128407200D02*
X155190476Y-128359580D01*
X155190476Y-128359580D02*
X155238095Y-128264342D01*
X155238095Y-128264342D02*
X155238095Y-128169104D01*
X155238095Y-128169104D02*
X155190476Y-128073866D01*
X155190476Y-128073866D02*
X155142857Y-128026247D01*
X155142857Y-128026247D02*
X155047619Y-127978628D01*
X155047619Y-127978628D02*
X154857143Y-127931009D01*
X154857143Y-127931009D02*
X154761905Y-127883390D01*
X154761905Y-127883390D02*
X154714286Y-127835771D01*
X154714286Y-127835771D02*
X154666667Y-127740533D01*
X154666667Y-127740533D02*
X154666667Y-127645295D01*
X154666667Y-127645295D02*
X154714286Y-127550057D01*
X154714286Y-127550057D02*
X154761905Y-127502438D01*
X154761905Y-127502438D02*
X154857143Y-127454819D01*
X154857143Y-127454819D02*
X155095238Y-127454819D01*
X155095238Y-127454819D02*
X155238095Y-127502438D01*
X155571429Y-127454819D02*
X155809524Y-128454819D01*
X155809524Y-128454819D02*
X156000000Y-127740533D01*
X156000000Y-127740533D02*
X156190476Y-128454819D01*
X156190476Y-128454819D02*
X156428572Y-127454819D01*
X157238095Y-127454819D02*
X157047619Y-127454819D01*
X157047619Y-127454819D02*
X156952381Y-127502438D01*
X156952381Y-127502438D02*
X156904762Y-127550057D01*
X156904762Y-127550057D02*
X156809524Y-127692914D01*
X156809524Y-127692914D02*
X156761905Y-127883390D01*
X156761905Y-127883390D02*
X156761905Y-128264342D01*
X156761905Y-128264342D02*
X156809524Y-128359580D01*
X156809524Y-128359580D02*
X156857143Y-128407200D01*
X156857143Y-128407200D02*
X156952381Y-128454819D01*
X156952381Y-128454819D02*
X157142857Y-128454819D01*
X157142857Y-128454819D02*
X157238095Y-128407200D01*
X157238095Y-128407200D02*
X157285714Y-128359580D01*
X157285714Y-128359580D02*
X157333333Y-128264342D01*
X157333333Y-128264342D02*
X157333333Y-128026247D01*
X157333333Y-128026247D02*
X157285714Y-127931009D01*
X157285714Y-127931009D02*
X157238095Y-127883390D01*
X157238095Y-127883390D02*
X157142857Y-127835771D01*
X157142857Y-127835771D02*
X156952381Y-127835771D01*
X156952381Y-127835771D02*
X156857143Y-127883390D01*
X156857143Y-127883390D02*
X156809524Y-127931009D01*
X156809524Y-127931009D02*
X156761905Y-128026247D01*
X154166667Y-96907200D02*
X154309524Y-96954819D01*
X154309524Y-96954819D02*
X154547619Y-96954819D01*
X154547619Y-96954819D02*
X154642857Y-96907200D01*
X154642857Y-96907200D02*
X154690476Y-96859580D01*
X154690476Y-96859580D02*
X154738095Y-96764342D01*
X154738095Y-96764342D02*
X154738095Y-96669104D01*
X154738095Y-96669104D02*
X154690476Y-96573866D01*
X154690476Y-96573866D02*
X154642857Y-96526247D01*
X154642857Y-96526247D02*
X154547619Y-96478628D01*
X154547619Y-96478628D02*
X154357143Y-96431009D01*
X154357143Y-96431009D02*
X154261905Y-96383390D01*
X154261905Y-96383390D02*
X154214286Y-96335771D01*
X154214286Y-96335771D02*
X154166667Y-96240533D01*
X154166667Y-96240533D02*
X154166667Y-96145295D01*
X154166667Y-96145295D02*
X154214286Y-96050057D01*
X154214286Y-96050057D02*
X154261905Y-96002438D01*
X154261905Y-96002438D02*
X154357143Y-95954819D01*
X154357143Y-95954819D02*
X154595238Y-95954819D01*
X154595238Y-95954819D02*
X154738095Y-96002438D01*
X155071429Y-95954819D02*
X155309524Y-96954819D01*
X155309524Y-96954819D02*
X155500000Y-96240533D01*
X155500000Y-96240533D02*
X155690476Y-96954819D01*
X155690476Y-96954819D02*
X155928572Y-95954819D01*
X156261905Y-96050057D02*
X156309524Y-96002438D01*
X156309524Y-96002438D02*
X156404762Y-95954819D01*
X156404762Y-95954819D02*
X156642857Y-95954819D01*
X156642857Y-95954819D02*
X156738095Y-96002438D01*
X156738095Y-96002438D02*
X156785714Y-96050057D01*
X156785714Y-96050057D02*
X156833333Y-96145295D01*
X156833333Y-96145295D02*
X156833333Y-96240533D01*
X156833333Y-96240533D02*
X156785714Y-96383390D01*
X156785714Y-96383390D02*
X156214286Y-96954819D01*
X156214286Y-96954819D02*
X156833333Y-96954819D01*
X133174667Y-96907200D02*
X133317524Y-96954819D01*
X133317524Y-96954819D02*
X133555619Y-96954819D01*
X133555619Y-96954819D02*
X133650857Y-96907200D01*
X133650857Y-96907200D02*
X133698476Y-96859580D01*
X133698476Y-96859580D02*
X133746095Y-96764342D01*
X133746095Y-96764342D02*
X133746095Y-96669104D01*
X133746095Y-96669104D02*
X133698476Y-96573866D01*
X133698476Y-96573866D02*
X133650857Y-96526247D01*
X133650857Y-96526247D02*
X133555619Y-96478628D01*
X133555619Y-96478628D02*
X133365143Y-96431009D01*
X133365143Y-96431009D02*
X133269905Y-96383390D01*
X133269905Y-96383390D02*
X133222286Y-96335771D01*
X133222286Y-96335771D02*
X133174667Y-96240533D01*
X133174667Y-96240533D02*
X133174667Y-96145295D01*
X133174667Y-96145295D02*
X133222286Y-96050057D01*
X133222286Y-96050057D02*
X133269905Y-96002438D01*
X133269905Y-96002438D02*
X133365143Y-95954819D01*
X133365143Y-95954819D02*
X133603238Y-95954819D01*
X133603238Y-95954819D02*
X133746095Y-96002438D01*
X134079429Y-95954819D02*
X134317524Y-96954819D01*
X134317524Y-96954819D02*
X134508000Y-96240533D01*
X134508000Y-96240533D02*
X134698476Y-96954819D01*
X134698476Y-96954819D02*
X134936572Y-95954819D01*
X135746095Y-96288152D02*
X135746095Y-96954819D01*
X135508000Y-95907200D02*
X135269905Y-96621485D01*
X135269905Y-96621485D02*
X135888952Y-96621485D01*
%TO.C,SW3*%
D11*
X143476000Y-108984000D02*
X146524000Y-108984000D01*
X146524000Y-115080000D01*
X143476000Y-115080000D01*
X143476000Y-108984000D01*
%TO.C,SW1*%
X143476000Y-86984000D02*
X146524000Y-86984000D01*
X146524000Y-93080000D01*
X143476000Y-93080000D01*
X143476000Y-86984000D01*
%TO.C,SW5*%
X132476000Y-129484000D02*
X135524000Y-129484000D01*
X135524000Y-135580000D01*
X132476000Y-135580000D01*
X132476000Y-129484000D01*
%TO.C,SW6*%
X154476000Y-129484000D02*
X157524000Y-129484000D01*
X157524000Y-135580000D01*
X154476000Y-135580000D01*
X154476000Y-129484000D01*
%TO.C,SW2*%
X154476000Y-98174000D02*
X157524000Y-98174000D01*
X157524000Y-104270000D01*
X154476000Y-104270000D01*
X154476000Y-98174000D01*
%TO.C,SW4*%
X132476000Y-97984000D02*
X135524000Y-97984000D01*
X135524000Y-104080000D01*
X132476000Y-104080000D01*
X132476000Y-97984000D01*
%TD*%
M02*
