%TF.GenerationSoftware,KiCad,Pcbnew,8.0.3*%
%TF.CreationDate,2024-07-03T14:55:16+02:00*%
%TF.ProjectId,Game Console PCB,47616d65-2043-46f6-9e73-6f6c65205043,rev?*%
%TF.SameCoordinates,Original*%
%TF.FileFunction,Legend,Bot*%
%TF.FilePolarity,Positive*%
%FSLAX46Y46*%
G04 Gerber Fmt 4.6, Leading zero omitted, Abs format (unit mm)*
G04 Created by KiCad (PCBNEW 8.0.3) date 2024-07-03 14:55:16*
%MOMM*%
%LPD*%
G01*
G04 APERTURE LIST*
%ADD10C,0.150000*%
%ADD11C,0.120000*%
G04 APERTURE END LIST*
D10*
X143539580Y-90870833D02*
X143587200Y-90823214D01*
X143587200Y-90823214D02*
X143634819Y-90680357D01*
X143634819Y-90680357D02*
X143634819Y-90585119D01*
X143634819Y-90585119D02*
X143587200Y-90442262D01*
X143587200Y-90442262D02*
X143491961Y-90347024D01*
X143491961Y-90347024D02*
X143396723Y-90299405D01*
X143396723Y-90299405D02*
X143206247Y-90251786D01*
X143206247Y-90251786D02*
X143063390Y-90251786D01*
X143063390Y-90251786D02*
X142872914Y-90299405D01*
X142872914Y-90299405D02*
X142777676Y-90347024D01*
X142777676Y-90347024D02*
X142682438Y-90442262D01*
X142682438Y-90442262D02*
X142634819Y-90585119D01*
X142634819Y-90585119D02*
X142634819Y-90680357D01*
X142634819Y-90680357D02*
X142682438Y-90823214D01*
X142682438Y-90823214D02*
X142730057Y-90870833D01*
X142634819Y-91727976D02*
X142634819Y-91537500D01*
X142634819Y-91537500D02*
X142682438Y-91442262D01*
X142682438Y-91442262D02*
X142730057Y-91394643D01*
X142730057Y-91394643D02*
X142872914Y-91299405D01*
X142872914Y-91299405D02*
X143063390Y-91251786D01*
X143063390Y-91251786D02*
X143444342Y-91251786D01*
X143444342Y-91251786D02*
X143539580Y-91299405D01*
X143539580Y-91299405D02*
X143587200Y-91347024D01*
X143587200Y-91347024D02*
X143634819Y-91442262D01*
X143634819Y-91442262D02*
X143634819Y-91632738D01*
X143634819Y-91632738D02*
X143587200Y-91727976D01*
X143587200Y-91727976D02*
X143539580Y-91775595D01*
X143539580Y-91775595D02*
X143444342Y-91823214D01*
X143444342Y-91823214D02*
X143206247Y-91823214D01*
X143206247Y-91823214D02*
X143111009Y-91775595D01*
X143111009Y-91775595D02*
X143063390Y-91727976D01*
X143063390Y-91727976D02*
X143015771Y-91632738D01*
X143015771Y-91632738D02*
X143015771Y-91442262D01*
X143015771Y-91442262D02*
X143063390Y-91347024D01*
X143063390Y-91347024D02*
X143111009Y-91299405D01*
X143111009Y-91299405D02*
X143206247Y-91251786D01*
X146539580Y-90870833D02*
X146587200Y-90823214D01*
X146587200Y-90823214D02*
X146634819Y-90680357D01*
X146634819Y-90680357D02*
X146634819Y-90585119D01*
X146634819Y-90585119D02*
X146587200Y-90442262D01*
X146587200Y-90442262D02*
X146491961Y-90347024D01*
X146491961Y-90347024D02*
X146396723Y-90299405D01*
X146396723Y-90299405D02*
X146206247Y-90251786D01*
X146206247Y-90251786D02*
X146063390Y-90251786D01*
X146063390Y-90251786D02*
X145872914Y-90299405D01*
X145872914Y-90299405D02*
X145777676Y-90347024D01*
X145777676Y-90347024D02*
X145682438Y-90442262D01*
X145682438Y-90442262D02*
X145634819Y-90585119D01*
X145634819Y-90585119D02*
X145634819Y-90680357D01*
X145634819Y-90680357D02*
X145682438Y-90823214D01*
X145682438Y-90823214D02*
X145730057Y-90870833D01*
X145634819Y-91775595D02*
X145634819Y-91299405D01*
X145634819Y-91299405D02*
X146111009Y-91251786D01*
X146111009Y-91251786D02*
X146063390Y-91299405D01*
X146063390Y-91299405D02*
X146015771Y-91394643D01*
X146015771Y-91394643D02*
X146015771Y-91632738D01*
X146015771Y-91632738D02*
X146063390Y-91727976D01*
X146063390Y-91727976D02*
X146111009Y-91775595D01*
X146111009Y-91775595D02*
X146206247Y-91823214D01*
X146206247Y-91823214D02*
X146444342Y-91823214D01*
X146444342Y-91823214D02*
X146539580Y-91775595D01*
X146539580Y-91775595D02*
X146587200Y-91727976D01*
X146587200Y-91727976D02*
X146634819Y-91632738D01*
X146634819Y-91632738D02*
X146634819Y-91394643D01*
X146634819Y-91394643D02*
X146587200Y-91299405D01*
X146587200Y-91299405D02*
X146539580Y-91251786D01*
X149539580Y-90870833D02*
X149587200Y-90823214D01*
X149587200Y-90823214D02*
X149634819Y-90680357D01*
X149634819Y-90680357D02*
X149634819Y-90585119D01*
X149634819Y-90585119D02*
X149587200Y-90442262D01*
X149587200Y-90442262D02*
X149491961Y-90347024D01*
X149491961Y-90347024D02*
X149396723Y-90299405D01*
X149396723Y-90299405D02*
X149206247Y-90251786D01*
X149206247Y-90251786D02*
X149063390Y-90251786D01*
X149063390Y-90251786D02*
X148872914Y-90299405D01*
X148872914Y-90299405D02*
X148777676Y-90347024D01*
X148777676Y-90347024D02*
X148682438Y-90442262D01*
X148682438Y-90442262D02*
X148634819Y-90585119D01*
X148634819Y-90585119D02*
X148634819Y-90680357D01*
X148634819Y-90680357D02*
X148682438Y-90823214D01*
X148682438Y-90823214D02*
X148730057Y-90870833D01*
X148968152Y-91727976D02*
X149634819Y-91727976D01*
X148587200Y-91489881D02*
X149301485Y-91251786D01*
X149301485Y-91251786D02*
X149301485Y-91870833D01*
X152539580Y-90870833D02*
X152587200Y-90823214D01*
X152587200Y-90823214D02*
X152634819Y-90680357D01*
X152634819Y-90680357D02*
X152634819Y-90585119D01*
X152634819Y-90585119D02*
X152587200Y-90442262D01*
X152587200Y-90442262D02*
X152491961Y-90347024D01*
X152491961Y-90347024D02*
X152396723Y-90299405D01*
X152396723Y-90299405D02*
X152206247Y-90251786D01*
X152206247Y-90251786D02*
X152063390Y-90251786D01*
X152063390Y-90251786D02*
X151872914Y-90299405D01*
X151872914Y-90299405D02*
X151777676Y-90347024D01*
X151777676Y-90347024D02*
X151682438Y-90442262D01*
X151682438Y-90442262D02*
X151634819Y-90585119D01*
X151634819Y-90585119D02*
X151634819Y-90680357D01*
X151634819Y-90680357D02*
X151682438Y-90823214D01*
X151682438Y-90823214D02*
X151730057Y-90870833D01*
X151634819Y-91204167D02*
X151634819Y-91823214D01*
X151634819Y-91823214D02*
X152015771Y-91489881D01*
X152015771Y-91489881D02*
X152015771Y-91632738D01*
X152015771Y-91632738D02*
X152063390Y-91727976D01*
X152063390Y-91727976D02*
X152111009Y-91775595D01*
X152111009Y-91775595D02*
X152206247Y-91823214D01*
X152206247Y-91823214D02*
X152444342Y-91823214D01*
X152444342Y-91823214D02*
X152539580Y-91775595D01*
X152539580Y-91775595D02*
X152587200Y-91727976D01*
X152587200Y-91727976D02*
X152634819Y-91632738D01*
X152634819Y-91632738D02*
X152634819Y-91347024D01*
X152634819Y-91347024D02*
X152587200Y-91251786D01*
X152587200Y-91251786D02*
X152539580Y-91204167D01*
X155539580Y-90870833D02*
X155587200Y-90823214D01*
X155587200Y-90823214D02*
X155634819Y-90680357D01*
X155634819Y-90680357D02*
X155634819Y-90585119D01*
X155634819Y-90585119D02*
X155587200Y-90442262D01*
X155587200Y-90442262D02*
X155491961Y-90347024D01*
X155491961Y-90347024D02*
X155396723Y-90299405D01*
X155396723Y-90299405D02*
X155206247Y-90251786D01*
X155206247Y-90251786D02*
X155063390Y-90251786D01*
X155063390Y-90251786D02*
X154872914Y-90299405D01*
X154872914Y-90299405D02*
X154777676Y-90347024D01*
X154777676Y-90347024D02*
X154682438Y-90442262D01*
X154682438Y-90442262D02*
X154634819Y-90585119D01*
X154634819Y-90585119D02*
X154634819Y-90680357D01*
X154634819Y-90680357D02*
X154682438Y-90823214D01*
X154682438Y-90823214D02*
X154730057Y-90870833D01*
X154730057Y-91251786D02*
X154682438Y-91299405D01*
X154682438Y-91299405D02*
X154634819Y-91394643D01*
X154634819Y-91394643D02*
X154634819Y-91632738D01*
X154634819Y-91632738D02*
X154682438Y-91727976D01*
X154682438Y-91727976D02*
X154730057Y-91775595D01*
X154730057Y-91775595D02*
X154825295Y-91823214D01*
X154825295Y-91823214D02*
X154920533Y-91823214D01*
X154920533Y-91823214D02*
X155063390Y-91775595D01*
X155063390Y-91775595D02*
X155634819Y-91204167D01*
X155634819Y-91204167D02*
X155634819Y-91823214D01*
X158539580Y-90870833D02*
X158587200Y-90823214D01*
X158587200Y-90823214D02*
X158634819Y-90680357D01*
X158634819Y-90680357D02*
X158634819Y-90585119D01*
X158634819Y-90585119D02*
X158587200Y-90442262D01*
X158587200Y-90442262D02*
X158491961Y-90347024D01*
X158491961Y-90347024D02*
X158396723Y-90299405D01*
X158396723Y-90299405D02*
X158206247Y-90251786D01*
X158206247Y-90251786D02*
X158063390Y-90251786D01*
X158063390Y-90251786D02*
X157872914Y-90299405D01*
X157872914Y-90299405D02*
X157777676Y-90347024D01*
X157777676Y-90347024D02*
X157682438Y-90442262D01*
X157682438Y-90442262D02*
X157634819Y-90585119D01*
X157634819Y-90585119D02*
X157634819Y-90680357D01*
X157634819Y-90680357D02*
X157682438Y-90823214D01*
X157682438Y-90823214D02*
X157730057Y-90870833D01*
X158634819Y-91823214D02*
X158634819Y-91251786D01*
X158634819Y-91537500D02*
X157634819Y-91537500D01*
X157634819Y-91537500D02*
X157777676Y-91442262D01*
X157777676Y-91442262D02*
X157872914Y-91347024D01*
X157872914Y-91347024D02*
X157920533Y-91251786D01*
X156904819Y-85333333D02*
X156428628Y-85000000D01*
X156904819Y-84761905D02*
X155904819Y-84761905D01*
X155904819Y-84761905D02*
X155904819Y-85142857D01*
X155904819Y-85142857D02*
X155952438Y-85238095D01*
X155952438Y-85238095D02*
X156000057Y-85285714D01*
X156000057Y-85285714D02*
X156095295Y-85333333D01*
X156095295Y-85333333D02*
X156238152Y-85333333D01*
X156238152Y-85333333D02*
X156333390Y-85285714D01*
X156333390Y-85285714D02*
X156381009Y-85238095D01*
X156381009Y-85238095D02*
X156428628Y-85142857D01*
X156428628Y-85142857D02*
X156428628Y-84761905D01*
X156904819Y-86285714D02*
X156904819Y-85714286D01*
X156904819Y-86000000D02*
X155904819Y-86000000D01*
X155904819Y-86000000D02*
X156047676Y-85904762D01*
X156047676Y-85904762D02*
X156142914Y-85809524D01*
X156142914Y-85809524D02*
X156190533Y-85714286D01*
X145583333Y-74154819D02*
X145583333Y-74869104D01*
X145583333Y-74869104D02*
X145630952Y-75011961D01*
X145630952Y-75011961D02*
X145726190Y-75107200D01*
X145726190Y-75107200D02*
X145869047Y-75154819D01*
X145869047Y-75154819D02*
X145964285Y-75154819D01*
X144583333Y-75154819D02*
X145154761Y-75154819D01*
X144869047Y-75154819D02*
X144869047Y-74154819D01*
X144869047Y-74154819D02*
X144964285Y-74297676D01*
X144964285Y-74297676D02*
X145059523Y-74392914D01*
X145059523Y-74392914D02*
X145154761Y-74440533D01*
X148054819Y-85333333D02*
X147578628Y-85000000D01*
X148054819Y-84761905D02*
X147054819Y-84761905D01*
X147054819Y-84761905D02*
X147054819Y-85142857D01*
X147054819Y-85142857D02*
X147102438Y-85238095D01*
X147102438Y-85238095D02*
X147150057Y-85285714D01*
X147150057Y-85285714D02*
X147245295Y-85333333D01*
X147245295Y-85333333D02*
X147388152Y-85333333D01*
X147388152Y-85333333D02*
X147483390Y-85285714D01*
X147483390Y-85285714D02*
X147531009Y-85238095D01*
X147531009Y-85238095D02*
X147578628Y-85142857D01*
X147578628Y-85142857D02*
X147578628Y-84761905D01*
X147388152Y-86190476D02*
X148054819Y-86190476D01*
X147007200Y-85952381D02*
X147721485Y-85714286D01*
X147721485Y-85714286D02*
X147721485Y-86333333D01*
X142154819Y-85333333D02*
X141678628Y-85000000D01*
X142154819Y-84761905D02*
X141154819Y-84761905D01*
X141154819Y-84761905D02*
X141154819Y-85142857D01*
X141154819Y-85142857D02*
X141202438Y-85238095D01*
X141202438Y-85238095D02*
X141250057Y-85285714D01*
X141250057Y-85285714D02*
X141345295Y-85333333D01*
X141345295Y-85333333D02*
X141488152Y-85333333D01*
X141488152Y-85333333D02*
X141583390Y-85285714D01*
X141583390Y-85285714D02*
X141631009Y-85238095D01*
X141631009Y-85238095D02*
X141678628Y-85142857D01*
X141678628Y-85142857D02*
X141678628Y-84761905D01*
X141154819Y-86190476D02*
X141154819Y-86000000D01*
X141154819Y-86000000D02*
X141202438Y-85904762D01*
X141202438Y-85904762D02*
X141250057Y-85857143D01*
X141250057Y-85857143D02*
X141392914Y-85761905D01*
X141392914Y-85761905D02*
X141583390Y-85714286D01*
X141583390Y-85714286D02*
X141964342Y-85714286D01*
X141964342Y-85714286D02*
X142059580Y-85761905D01*
X142059580Y-85761905D02*
X142107200Y-85809524D01*
X142107200Y-85809524D02*
X142154819Y-85904762D01*
X142154819Y-85904762D02*
X142154819Y-86095238D01*
X142154819Y-86095238D02*
X142107200Y-86190476D01*
X142107200Y-86190476D02*
X142059580Y-86238095D01*
X142059580Y-86238095D02*
X141964342Y-86285714D01*
X141964342Y-86285714D02*
X141726247Y-86285714D01*
X141726247Y-86285714D02*
X141631009Y-86238095D01*
X141631009Y-86238095D02*
X141583390Y-86190476D01*
X141583390Y-86190476D02*
X141535771Y-86095238D01*
X141535771Y-86095238D02*
X141535771Y-85904762D01*
X141535771Y-85904762D02*
X141583390Y-85809524D01*
X141583390Y-85809524D02*
X141631009Y-85761905D01*
X141631009Y-85761905D02*
X141726247Y-85714286D01*
X151004819Y-85333333D02*
X150528628Y-85000000D01*
X151004819Y-84761905D02*
X150004819Y-84761905D01*
X150004819Y-84761905D02*
X150004819Y-85142857D01*
X150004819Y-85142857D02*
X150052438Y-85238095D01*
X150052438Y-85238095D02*
X150100057Y-85285714D01*
X150100057Y-85285714D02*
X150195295Y-85333333D01*
X150195295Y-85333333D02*
X150338152Y-85333333D01*
X150338152Y-85333333D02*
X150433390Y-85285714D01*
X150433390Y-85285714D02*
X150481009Y-85238095D01*
X150481009Y-85238095D02*
X150528628Y-85142857D01*
X150528628Y-85142857D02*
X150528628Y-84761905D01*
X150004819Y-85666667D02*
X150004819Y-86285714D01*
X150004819Y-86285714D02*
X150385771Y-85952381D01*
X150385771Y-85952381D02*
X150385771Y-86095238D01*
X150385771Y-86095238D02*
X150433390Y-86190476D01*
X150433390Y-86190476D02*
X150481009Y-86238095D01*
X150481009Y-86238095D02*
X150576247Y-86285714D01*
X150576247Y-86285714D02*
X150814342Y-86285714D01*
X150814342Y-86285714D02*
X150909580Y-86238095D01*
X150909580Y-86238095D02*
X150957200Y-86190476D01*
X150957200Y-86190476D02*
X151004819Y-86095238D01*
X151004819Y-86095238D02*
X151004819Y-85809524D01*
X151004819Y-85809524D02*
X150957200Y-85714286D01*
X150957200Y-85714286D02*
X150909580Y-85666667D01*
X145104819Y-85333333D02*
X144628628Y-85000000D01*
X145104819Y-84761905D02*
X144104819Y-84761905D01*
X144104819Y-84761905D02*
X144104819Y-85142857D01*
X144104819Y-85142857D02*
X144152438Y-85238095D01*
X144152438Y-85238095D02*
X144200057Y-85285714D01*
X144200057Y-85285714D02*
X144295295Y-85333333D01*
X144295295Y-85333333D02*
X144438152Y-85333333D01*
X144438152Y-85333333D02*
X144533390Y-85285714D01*
X144533390Y-85285714D02*
X144581009Y-85238095D01*
X144581009Y-85238095D02*
X144628628Y-85142857D01*
X144628628Y-85142857D02*
X144628628Y-84761905D01*
X144104819Y-86238095D02*
X144104819Y-85761905D01*
X144104819Y-85761905D02*
X144581009Y-85714286D01*
X144581009Y-85714286D02*
X144533390Y-85761905D01*
X144533390Y-85761905D02*
X144485771Y-85857143D01*
X144485771Y-85857143D02*
X144485771Y-86095238D01*
X144485771Y-86095238D02*
X144533390Y-86190476D01*
X144533390Y-86190476D02*
X144581009Y-86238095D01*
X144581009Y-86238095D02*
X144676247Y-86285714D01*
X144676247Y-86285714D02*
X144914342Y-86285714D01*
X144914342Y-86285714D02*
X145009580Y-86238095D01*
X145009580Y-86238095D02*
X145057200Y-86190476D01*
X145057200Y-86190476D02*
X145104819Y-86095238D01*
X145104819Y-86095238D02*
X145104819Y-85857143D01*
X145104819Y-85857143D02*
X145057200Y-85761905D01*
X145057200Y-85761905D02*
X145009580Y-85714286D01*
X153954819Y-85333333D02*
X153478628Y-85000000D01*
X153954819Y-84761905D02*
X152954819Y-84761905D01*
X152954819Y-84761905D02*
X152954819Y-85142857D01*
X152954819Y-85142857D02*
X153002438Y-85238095D01*
X153002438Y-85238095D02*
X153050057Y-85285714D01*
X153050057Y-85285714D02*
X153145295Y-85333333D01*
X153145295Y-85333333D02*
X153288152Y-85333333D01*
X153288152Y-85333333D02*
X153383390Y-85285714D01*
X153383390Y-85285714D02*
X153431009Y-85238095D01*
X153431009Y-85238095D02*
X153478628Y-85142857D01*
X153478628Y-85142857D02*
X153478628Y-84761905D01*
X153050057Y-85714286D02*
X153002438Y-85761905D01*
X153002438Y-85761905D02*
X152954819Y-85857143D01*
X152954819Y-85857143D02*
X152954819Y-86095238D01*
X152954819Y-86095238D02*
X153002438Y-86190476D01*
X153002438Y-86190476D02*
X153050057Y-86238095D01*
X153050057Y-86238095D02*
X153145295Y-86285714D01*
X153145295Y-86285714D02*
X153240533Y-86285714D01*
X153240533Y-86285714D02*
X153383390Y-86238095D01*
X153383390Y-86238095D02*
X153954819Y-85666667D01*
X153954819Y-85666667D02*
X153954819Y-86285714D01*
D11*
%TO.C,C6*%
X142235000Y-90776248D02*
X142235000Y-91298752D01*
X140765000Y-90776248D02*
X140765000Y-91298752D01*
%TO.C,C5*%
X145235000Y-90776248D02*
X145235000Y-91298752D01*
X143765000Y-90776248D02*
X143765000Y-91298752D01*
%TO.C,C4*%
X148235000Y-90776248D02*
X148235000Y-91298752D01*
X146765000Y-90776248D02*
X146765000Y-91298752D01*
%TO.C,C3*%
X149765000Y-90776248D02*
X149765000Y-91298752D01*
X151235000Y-90776248D02*
X151235000Y-91298752D01*
%TO.C,C2*%
X154235000Y-90776248D02*
X154235000Y-91298752D01*
X152765000Y-90776248D02*
X152765000Y-91298752D01*
%TO.C,C1*%
X157235000Y-90776248D02*
X157235000Y-91298752D01*
X155765000Y-90776248D02*
X155765000Y-91298752D01*
%TO.C,R1*%
X154065000Y-85272936D02*
X154065000Y-85727064D01*
X155535000Y-85272936D02*
X155535000Y-85727064D01*
%TO.C,J1*%
X133890000Y-75790000D02*
X133890000Y-79810000D01*
X133890000Y-77500000D02*
X134390000Y-77500000D01*
X133890000Y-79810000D02*
X156610000Y-79810000D01*
X134390000Y-76290000D02*
X156110000Y-76290000D01*
X134390000Y-77500000D02*
X134390000Y-76290000D01*
X134890000Y-78310000D02*
X133890000Y-78310000D01*
X134890000Y-79810000D02*
X134890000Y-78310000D01*
X154410000Y-80110000D02*
X156910000Y-80110000D01*
X155610000Y-78310000D02*
X156610000Y-78310000D01*
X155610000Y-79810000D02*
X155610000Y-78310000D01*
X156110000Y-76290000D02*
X156110000Y-77500000D01*
X156110000Y-77500000D02*
X156610000Y-77500000D01*
X156610000Y-75790000D02*
X133890000Y-75790000D01*
X156610000Y-79810000D02*
X156610000Y-75790000D01*
X156910000Y-80110000D02*
X156910000Y-77610000D01*
%TO.C,R4*%
X146685000Y-85272936D02*
X146685000Y-85727064D01*
X145215000Y-85272936D02*
X145215000Y-85727064D01*
%TO.C,R6*%
X139315000Y-85272936D02*
X139315000Y-85727064D01*
X140785000Y-85272936D02*
X140785000Y-85727064D01*
%TO.C,R3*%
X148165000Y-85272936D02*
X148165000Y-85727064D01*
X149635000Y-85272936D02*
X149635000Y-85727064D01*
%TO.C,R5*%
X142265000Y-85272936D02*
X142265000Y-85727064D01*
X143735000Y-85272936D02*
X143735000Y-85727064D01*
%TO.C,R2*%
X151115000Y-85272936D02*
X151115000Y-85727064D01*
X152585000Y-85272936D02*
X152585000Y-85727064D01*
%TD*%
M02*
